<?xml version="1.0" encoding="utf-8"?>
<!DOCTYPE svg PUBLIC "-//W3C//DTD SVG 1.1//EN" "http://www.w3.org/Graphics/SVG/1.1/DTD/svg11.dtd">
<svg version="1.1" xmlns="http://www.w3.org/2000/svg" xmlns:xlink="http://www.w3.org/1999/xlink">
<g>
	<path fill="#FFFFFF" d="M98.653,9.154l-4.209-0.282l-0.191,2.851l4.94,0.331l-0.118,1.761l-7.132-0.478l0.712-10.64l7.118,0.476
		l-0.119,1.776l-4.926-0.33l-0.17,2.536l4.21,0.281L98.653,9.154z"/>
	<path fill="#FFFFFF" d="M108.558,15.516l-2.159-0.407l-2.901-7.688l-1.302,6.895l-2.159-0.407l1.979-10.479l2.159,0.408
		l2.906,7.704l1.304-6.909l2.152,0.406L108.558,15.516z"/>
	<path fill="#FFFFFF" d="M120.28,9.896l-3.11-0.997l-2.714,8.459l-2.092-0.671l2.714-8.46l-3.068-0.984l0.543-1.694l8.271,2.653
		L120.28,9.896z"/>
	<path fill="#FFFFFF" d="M126.197,17.181l-3.847-1.732l-1.173,2.604l4.515,2.033l-0.725,1.609l-6.519-2.936l4.379-9.724l6.505,2.93
		l-0.73,1.623l-4.502-2.027l-1.043,2.317l3.847,1.732L126.197,17.181z"/>
	<path fill="#FFFFFF" d="M131.231,20.819l-1.504-0.896l-1.997,3.354l-1.888-1.124l5.455-9.164l3.404,2.027
		c1.083,0.645,1.774,1.383,2.074,2.215s0.188,1.688-0.337,2.57c-0.372,0.625-0.817,1.065-1.337,1.322
		c-0.519,0.256-1.127,0.345-1.824,0.265l-0.246,4.925l-0.053,0.088l-2.026-1.206L131.231,20.819z M130.638,18.395l1.523,0.906
		c0.474,0.282,0.913,0.38,1.316,0.294c0.404-0.087,0.732-0.342,0.984-0.766c0.257-0.432,0.337-0.845,0.239-1.238
		c-0.099-0.394-0.401-0.742-0.909-1.044l-1.517-0.903L130.638,18.395z"/>
	<path fill="#FFFFFF" d="M147.448,39.117l-1.547-1.56l1.97-7.979l-4.982,4.941l-1.547-1.561l7.571-7.51l1.548,1.561l-1.976,7.993
		l4.992-4.951l1.542,1.555L147.448,39.117z"/>
	<path fill="#FFFFFF" d="M153.964,43.899l-2.33-3.068l-2.192,0.746l-1.413-1.86l10.893-3.289l1.231,1.621l-6.077,9.629l-1.413-1.86
		L153.964,43.899z M153.41,40.228l1.612,2.123l2.368-3.482L153.41,40.228z"/>
	<path fill="#FFFFFF" d="M165.178,45.543l-5.454,6.131l8.09-1.344l1.392,2.527l-9.342,5.144L158.8,56.07l2.554-1.406l4.514-2.234
		l-8.35,1.312l-0.728-1.322l5.57-6.344l-4.296,2.615l-2.554,1.406l-1.06-1.925l9.342-5.144L165.178,45.543z"/>
	<path fill="#FFFFFF" d="M166.999,63.839l-1.512-3.938l-2.667,1.022l1.773,4.623l-1.647,0.632l-2.561-6.674l9.956-3.82l2.556,6.66
		l-1.662,0.638l-1.769-4.608l-2.373,0.91l1.512,3.938L166.999,63.839z"/>
	<path fill="#FFFFFF" d="M164.647,77.271l-0.235-1.557l12.036,2.15l0.235,1.557L164.647,77.271z"/>
	<path fill="#FFFFFF" d="M170.876,98.313l0.265-4.211l-2.851-0.18l-0.312,4.941l-1.762-0.11l0.449-7.135l10.644,0.67l-0.448,7.12
		l-1.776-0.112l0.311-4.927l-2.537-0.159l-0.265,4.21L170.876,98.313z"/>
	<path fill="#FFFFFF" d="M164.552,108.248l0.399-2.16l7.677-2.933l-6.899-1.274l0.398-2.16l10.487,1.937l-0.399,2.161l-7.692,2.937
		l6.914,1.276l-0.397,2.153L164.552,108.248z"/>
	<path fill="#FFFFFF" d="M170.228,119.925l0.985-3.115l-8.472-2.678l0.663-2.095l8.471,2.678l0.972-3.073l1.696,0.537l-2.618,8.282
		L170.228,119.925z"/>
	<path fill="#FFFFFF" d="M162.968,125.876l1.716-3.854l-2.609-1.162l-2.014,4.523l-1.613-0.718l2.908-6.53l9.742,4.337l-2.902,6.518
		l-1.626-0.725l2.008-4.509l-2.321-1.034l-1.716,3.854L162.968,125.876z"/>
	<path fill="#FFFFFF" d="M159.349,130.928l0.89-1.509l-3.363-1.982l1.116-1.893l9.187,5.416l-2.013,3.414
		c-0.641,1.085-1.376,1.779-2.206,2.083c-0.831,0.304-1.688,0.194-2.571-0.326c-0.627-0.369-1.07-0.813-1.328-1.331
		c-0.259-0.519-0.35-1.126-0.272-1.823l-4.926-0.227l-0.089-0.052l1.198-2.031L159.349,130.928z M161.771,130.323l-0.9,1.527
		c-0.28,0.475-0.377,0.914-0.289,1.317c0.089,0.403,0.345,0.73,0.77,0.981c0.434,0.255,0.847,0.333,1.24,0.233
		c0.393-0.1,0.739-0.404,1.04-0.913l0.896-1.521L161.771,130.323z"/>
	<path fill="#FFFFFF" d="M141.117,147.222l1.554-1.554l7.986,1.937l-4.962-4.962l1.554-1.554l7.541,7.541l-1.554,1.554l-8.002-1.942
		l4.972,4.972l-1.548,1.549L141.117,147.222z"/>
	<path fill="#FFFFFF" d="M136.361,153.756l3.058-2.343l-0.755-2.189l1.855-1.421l3.334,10.88l-1.616,1.238l-9.654-6.038l1.854-1.421
		L136.361,153.756z M140.031,153.187l-2.117,1.622l3.492,2.354L140.031,153.187z"/>
	<path fill="#FFFFFF" d="M134.737,164.992l-6.15-5.431l1.375,8.084l-2.523,1.401l-5.179-9.321l1.927-1.071l1.416,2.549l2.252,4.505
		l-1.344-8.345l1.319-0.732l6.365,5.546l-2.632-4.285l-1.416-2.549l1.921-1.066l5.179,9.321L134.737,164.992z"/>
	<path fill="#FFFFFF" d="M116.483,166.872l3.932-1.528l-1.034-2.662l-4.615,1.793l-0.64-1.646l6.663-2.589l3.863,9.94l-6.649,2.584
		l-0.645-1.659l4.601-1.788l-0.92-2.369l-3.933,1.528L116.483,166.872z"/>
	<path fill="#FFFFFF" d="M103.019,164.581l1.557-0.241l-2.104,12.044l-1.556,0.242L103.019,164.581z"/>
	<path fill="#FFFFFF" d="M82.04,170.896l4.212,0.247l0.167-2.852l-4.942-0.29l0.103-1.762l7.137,0.418l-0.624,10.646l-7.122-0.417
		l0.104-1.777l4.928,0.289l0.149-2.537l-4.212-0.247L82.04,170.896z"/>
	<path fill="#FFFFFF" d="M72.041,164.605l2.162,0.391l2.962,7.665l1.247-6.904l2.162,0.391l-1.896,10.494l-2.162-0.391l-2.967-7.681
		l-1.25,6.919l-2.154-0.39L72.041,164.605z"/>
	<path fill="#FFFFFF" d="M60.384,170.326l3.118,0.973l2.646-8.481l2.098,0.654l-2.646,8.481l3.077,0.96l-0.53,1.698l-8.293-2.586
		L60.384,170.326z"/>
	<path fill="#FFFFFF" d="M54.429,163.101l3.861,1.7l1.15-2.614l-4.531-1.995l0.711-1.615l6.543,2.88l-4.297,9.761l-6.529-2.875
		l0.718-1.629l4.518,1.989l1.024-2.326l-3.861-1.699L54.429,163.101z"/>
	<path fill="#FFFFFF" d="M49.358,159.502l1.512,0.883l1.97-3.371l1.896,1.108l-5.379,9.208l-3.421-1.998
		c-1.088-0.636-1.785-1.368-2.093-2.198c-0.307-0.829-0.201-1.687,0.315-2.572c0.367-0.628,0.81-1.072,1.326-1.333
		s1.124-0.354,1.822-0.28l0.206-4.927l0.051-0.089l2.037,1.189L49.358,159.502z M49.973,161.922l-1.53-0.895
		c-0.477-0.278-0.916-0.372-1.319-0.282s-0.729,0.347-0.978,0.773c-0.254,0.434-0.33,0.848-0.229,1.24s0.407,0.738,0.917,1.036
		l1.524,0.891L49.973,161.922z"/>
	<path fill="#FFFFFF" d="M32.97,141.313l1.56,1.549l-1.907,7.993l4.943-4.98l1.56,1.548l-7.513,7.568l-1.56-1.548l1.912-8.009
		l-4.953,4.991l-1.554-1.543L32.97,141.313z"/>
	<path fill="#FFFFFF" d="M26.435,136.605l2.355,3.049l2.187-0.764l1.429,1.849l-10.865,3.379l-1.245-1.611l5.998-9.679l1.429,1.849
		L26.435,136.605z M27.02,140.273l-1.63-2.11l-2.34,3.502L27.02,140.273z"/>
	<path fill="#FFFFFF" d="M15.194,135.03l5.405-6.173l-8.079,1.408l-1.412-2.517l9.301-5.218l1.079,1.923l-2.543,1.426l-4.495,2.271
		l8.339-1.378l0.738,1.316l-5.521,6.388l4.275-2.649l2.542-1.427l1.075,1.917l-9.301,5.217L15.194,135.03z"/>
	<path fill="#FFFFFF" d="M13.229,116.759l1.543,3.926l2.658-1.044l-1.811-4.608l1.643-0.646l2.615,6.653l-9.926,3.899l-2.609-6.639
		L9,117.649l1.806,4.595l2.365-0.93l-1.543-3.927L13.229,116.759z"/>
	<path fill="#FFFFFF" d="M15.476,103.322l0.248,1.555L3.67,102.826l-0.248-1.555L15.476,103.322z"/>
	<path fill="#FFFFFF" d="M9.074,82.344l-0.23,4.213l2.852,0.155l0.271-4.943l1.763,0.096l-0.391,7.138L2.69,88.42l0.389-7.123
		l1.777,0.098l-0.27,4.929l2.538,0.139l0.23-4.212L9.074,82.344z"/>
	<path fill="#FFFFFF" d="M15.317,72.343l-0.381,2.163l-7.652,2.995l6.91,1.218l-0.382,2.164L3.311,79.032l0.382-2.164l7.668-3
		l-6.925-1.22l0.38-2.156L15.317,72.343z"/>
	<path fill="#FFFFFF" d="M9.549,60.705l-0.96,3.122l8.493,2.609l-0.646,2.101l-8.492-2.609l-0.947,3.081l-1.701-0.523l2.551-8.303
		L9.549,60.705z"/>
	<path fill="#FFFFFF" d="M16.764,54.688l-1.685,3.867l2.619,1.141l1.978-4.539l1.618,0.705l-2.855,6.554l-9.776-4.259l2.849-6.54
		l1.632,0.711l-1.972,4.525l2.33,1.015l1.686-3.867L16.764,54.688z"/>
	<path fill="#FFFFFF" d="M20.345,49.604l-0.877,1.515l3.378,1.956l-1.101,1.901l-9.229-5.344l1.985-3.429
		c0.631-1.09,1.361-1.79,2.189-2.101s1.687-0.208,2.574,0.306c0.629,0.364,1.075,0.805,1.338,1.32
		c0.263,0.517,0.358,1.123,0.287,1.821l4.928,0.187l0.089,0.052l-1.183,2.041L20.345,49.604z M17.928,50.227l0.888-1.534
		c0.276-0.478,0.369-0.917,0.278-1.32c-0.092-0.402-0.351-0.728-0.777-0.975c-0.436-0.252-0.849-0.326-1.241-0.224
		s-0.737,0.41-1.033,0.921l-0.885,1.527L17.928,50.227z"/>
	<path fill="#FFFFFF" d="M38.45,33.163l-1.541,1.565l-8.001-1.874l5,4.923l-1.541,1.565l-7.6-7.481l1.541-1.565l8.017,1.879
		l-5.011-4.933l1.537-1.561L38.45,33.163z"/>
	<path fill="#FFFFFF" d="M43.153,26.592l-3.04,2.367l0.772,2.184l-1.844,1.436l-3.419-10.854l1.606-1.251l9.701,5.962l-1.844,1.436
		L43.153,26.592z M39.488,27.19l2.104-1.639l-3.51-2.326L39.488,27.19z"/>
	<path fill="#FFFFFF" d="M44.657,15.363l6.196,5.38l-1.441-8.073l2.511-1.422l5.256,9.278l-1.918,1.087l-1.438-2.536l-2.288-4.486
		l1.412,8.333l-1.313,0.743l-6.412-5.493l2.668,4.264l1.437,2.536l-1.911,1.083l-5.257-9.278L44.657,15.363z"/>
	<path fill="#FFFFFF" d="M62.919,13.323l-3.92,1.561l1.057,2.653l4.6-1.83l0.653,1.64l-6.643,2.644l-3.942-9.909l6.629-2.637
		l0.657,1.653l-4.586,1.825l0.939,2.361l3.92-1.56L62.919,13.323z"/>
	<path fill="#FFFFFF" d="M76.384,15.509l-1.555,0.255l2.004-12.062l1.555-0.255L76.384,15.509z"/>
</g>
</svg>
