<?xml version="1.0" encoding="utf-8"?>
<!DOCTYPE svg PUBLIC "-//W3C//DTD SVG 1.1//EN" "http://www.w3.org/Graphics/SVG/1.1/DTD/svg11.dtd">
<svg version="1.1" xmlns="http://www.w3.org/2000/svg" xmlns:xlink="http://www.w3.org/1999/xlink">
<g>
	<path fill="#FFFFFF" d="M25.465,40.978l-1.31,2.151l-9.42,0.003l6.87,4.185l-1.31,2.15l-10.44-6.358l1.31-2.15l9.438-0.003
		l-6.883-4.192l1.306-2.145L25.465,40.978z"/>
	<path fill="#FFFFFF" d="M29.236,32.65l-2.911,3.322l1.342,2.291l-1.765,2.015l-6.196-11.479l1.539-1.755l12.208,4.615l-1.764,2.015
		L29.236,32.65z M25.239,34.116l2.013-2.299l-4.454-1.859L25.239,34.116z"/>
	<path fill="#FFFFFF" d="M28.935,19.53l7.922,5.068l-2.98-8.915l2.611-2.032l7.507,9.647l-1.993,1.552l-2.053-2.637l-3.344-4.706
		l2.991,9.215l-1.364,1.063l-8.187-5.161l3.736,4.39l2.052,2.638l-1.988,1.547l-7.508-9.646L28.935,19.53z"/>
	<path fill="#FFFFFF" d="M49.603,14.449l-4.279,2.255l1.527,2.897l5.022-2.646l0.942,1.79l-7.25,3.82L39.868,11.75l7.234-3.813
		l0.951,1.805l-5.005,2.638l1.358,2.578l4.278-2.255L49.603,14.449z"/>
	<path fill="#FFFFFF" d="M79.83,14.153l-1.804-0.039L82.811,0.94l1.804,0.039L79.83,14.153z"/>
	<path fill="#FFFFFF" d="M118.813,25.299l-2.156-1.302l-0.039-9.42l-4.157,6.886l-2.156-1.302l6.318-10.466l2.156,1.303l0.038,9.438
		l4.166-6.899l2.148,1.297L118.813,25.299z"/>
	<path fill="#FFFFFF" d="M127.139,29.021l-3.333-2.896l-2.286,1.351l-2.021-1.757l11.453-6.243l1.762,1.531l-4.564,12.229
		l-2.021-1.757L127.139,29.021z M125.658,25.031l2.306,2.004l1.841-4.462L125.658,25.031z"/>
	<path fill="#FFFFFF" d="M140.278,28.691l-5.039,7.941l8.903-3.014l2.042,2.603l-9.619,7.544l-1.559-1.988l2.629-2.063l4.693-3.361
		l-9.203,3.025l-1.068-1.36l5.131-8.207l-4.377,3.753l-2.629,2.063l-1.554-1.982l9.619-7.544L140.278,28.691z"/>
	<path fill="#FFFFFF" d="M145.423,49.314l-2.271-4.27l-2.891,1.539l2.666,5.01l-1.786,0.951l-3.85-7.234l10.791-5.743l3.842,7.219
		l-1.801,0.958l-2.658-4.995l-2.572,1.369l2.272,4.269L145.423,49.314z"/>
	<path fill="#FFFFFF" d="M145.844,79.527l0.032-1.805l13.194,4.729l-0.031,1.805L145.844,79.527z"/>
	<path fill="#FFFFFF" d="M134.861,118.564l1.293-2.162l9.421-0.08l-6.904-4.129l1.292-2.16l10.492,6.271l-1.292,2.162l-9.438,0.08
		l6.918,4.137l-1.289,2.154L134.861,118.564z"/>
	<path fill="#FFFFFF" d="M131.156,126.928l2.884-3.346l-1.359-2.279l1.749-2.029l6.286,11.428l-1.524,1.77l-12.246-4.518
		l1.749-2.029L131.156,126.928z M135.141,125.43l-1.995,2.314l4.47,1.824L135.141,125.43z"/>
	<path fill="#FFFFFF" d="M131.557,140.047l-7.962-5.006l3.05,8.893l-2.595,2.051l-7.583-9.588l1.983-1.566l2.071,2.621l3.381,4.68
		l-3.063-9.191l1.355-1.074l8.229,5.098l-3.771-4.361l-2.073-2.621l1.976-1.563l7.583,9.588L131.557,140.047z"/>
	<path fill="#FFFFFF" d="M110.956,145.277l4.259-2.291l-1.551-2.883l-4.999,2.688l-0.957-1.783l7.218-3.879l5.788,10.768
		l-7.204,3.871l-0.966-1.797l4.985-2.68l-1.379-2.566l-4.26,2.289L110.956,145.277z"/>
	<path fill="#FFFFFF" d="M80.731,145.822l1.806,0.025l-4.677,13.213l-1.805-0.025L80.731,145.822z"/>
	<path fill="#FFFFFF" d="M41.666,135.006l2.167,1.283l0.12,9.418l4.099-6.92l2.167,1.283l-6.229,10.518l-2.167-1.283l-0.119-9.438
		l-4.106,6.934l-2.161-1.277L41.666,135.006z"/>
	<path fill="#FFFFFF" d="M33.284,131.332l3.357,2.869l2.275-1.369l2.035,1.742l-11.402,6.334l-1.774-1.518l4.466-12.266l2.036,1.74
		L33.284,131.332z M34.798,135.311l-2.324-1.986l-1.805,4.477L34.798,135.311z"/>
	<path fill="#FFFFFF" d="M20.164,131.785l4.973-7.982l-8.878,3.086l-2.063-2.586l9.557-7.623l1.576,1.975l-2.612,2.084l-4.666,3.4
		l9.179-3.1l1.079,1.352l-5.063,8.248l4.345-3.789l2.612-2.084l1.57,1.969l-9.556,7.623L20.164,131.785z"/>
	<path fill="#FFFFFF" d="M14.85,111.205l2.308,4.25l2.878-1.561l-2.708-4.988l1.778-0.967l3.91,7.203l-10.744,5.832l-3.902-7.188
		l1.793-0.973l2.701,4.973l2.56-1.391l-2.308-4.25L14.85,111.205z"/>
	<path fill="#FFFFFF" d="M14.177,80.969l-0.017,1.805L0.93,78.15l0.017-1.805L14.177,80.969z"/>
</g>
</svg>
