<?xml version="1.0" encoding="utf-8"?>
<!DOCTYPE svg PUBLIC "-//W3C//DTD SVG 1.1//EN" "http://www.w3.org/Graphics/SVG/1.1/DTD/svg11.dtd">
<svg version="1.1" xmlns="http://www.w3.org/2000/svg" xmlns:xlink="http://www.w3.org/1999/xlink">
<g>
	<path fill="#FFFFFF" d="M141.46,22.596l-1.155,6.155l-3.6-0.676l3.279-17.469l6.813,1.279c1.313,0.246,2.421,0.703,3.326,1.37
		s1.544,1.492,1.914,2.477c0.369,0.984,0.448,2.041,0.237,3.168c-0.321,1.712-1.161,2.952-2.519,3.72
		c-1.356,0.768-3.071,0.957-5.144,0.568L141.46,22.596z M142.007,19.681l3.216,0.604c0.951,0.179,1.721,0.091,2.305-0.263
		s0.953-0.947,1.109-1.779c0.16-0.855,0.038-1.595-0.365-2.218c-0.405-0.622-1.051-1.024-1.936-1.207l-3.3-0.62L142.007,19.681z"/>
	<path fill="#FFFFFF" d="M156.316,29.632l7.349,2.542l-0.961,2.78l-10.81-3.739l5.811-16.797l3.461,1.197L156.316,29.632z"/>
	<path fill="#FFFFFF" d="M174.887,37.055l-5.678-3.001l-2.79,2.668l-3.442-1.82l14.154-12.621l3.001,1.586l-2.425,18.822
		l-3.441-1.82L174.887,37.055z M171.471,31.894l3.928,2.077l1.135-6.926L171.471,31.894z"/>
	<path fill="#FFFFFF" d="M187.689,38.122l7.697-4.31l3.24,2.351l-11.375,5.744l-3.784,5.217l-3.014-2.186l3.784-5.218l1.928-12.596
		l3.251,2.358L187.689,38.122z"/>
	<path fill="#FFFFFF" d="M211.792,73.354l-3.446-5.417l-3.744,0.936l-2.092-3.285l18.547-3.96l1.822,2.863l-11.424,15.154
		l-2.091-3.285L211.792,73.354z M211.378,67.179l2.386,3.749l4.413-5.456L211.378,67.179z"/>
	<path fill="#FFFFFF" d="M219.262,92.418c-0.984-0.299-1.912-0.917-2.783-1.855s-1.595-2.081-2.166-3.43
		c-0.603-1.415-0.819-2.788-0.655-4.118c0.165-1.33,0.712-2.535,1.641-3.614c0.931-1.08,2.187-1.965,3.767-2.654l1.112-0.473
		c1.634-0.693,3.164-1.019,4.593-0.976s2.68,0.448,3.754,1.217c1.072,0.769,1.906,1.85,2.498,3.243
		c0.824,1.939,1.006,3.653,0.545,5.14c-0.461,1.486-1.531,2.706-3.213,3.659l-1.395-3.28c0.872-0.548,1.417-1.171,1.634-1.868
		c0.216-0.697,0.134-1.496-0.247-2.395c-0.488-1.146-1.289-1.836-2.404-2.069c-1.116-0.233-2.525,0.008-4.229,0.723l-1.045,0.443
		c-1.715,0.729-2.872,1.604-3.472,2.629c-0.6,1.023-0.633,2.165-0.098,3.424c0.536,1.266,1.189,2.054,1.959,2.363l2.819-1.197
		l-1.303-3.067l2.481-1.055l2.734,6.438L219.262,92.418z"/>
	<path fill="#FFFFFF" d="M223.768,104.394l-1.484-6.247l-3.846-0.341l-0.899-3.789l18.821,2.328l0.785,3.302l-15.754,10.581
		l-0.9-3.788L223.768,104.394z M225.398,98.423l1.026,4.323l5.956-3.712L225.398,98.423z"/>
	<path fill="#FFFFFF" d="M221.664,115.317l-0.415-3.639l17.658-2.019l0.416,3.639L221.664,115.317z"/>
	<path fill="#FFFFFF" d="M221.969,132.593l0.059-3.661l11.81-6.938l-11.692-0.19l0.061-3.661l17.771,0.288l-0.061,3.662
		l-11.833,6.95l11.718,0.188l-0.06,3.65L221.969,132.593z"/>
	<path fill="#FFFFFF" d="M215.232,156.251l0.927-2.457l15.752,12.931l-0.927,2.455L215.232,156.251z"/>
	<path fill="#FFFFFF" d="M205.564,189.419l-4.769-4.062l2.374-2.789l13.533,11.521l-4.495,5.279
		c-0.864,1.018-1.812,1.752-2.84,2.207c-1.029,0.455-2.063,0.6-3.101,0.432c-1.039-0.168-1.994-0.623-2.869-1.367
		c-1.325-1.129-1.984-2.473-1.978-4.033c0.009-1.559,0.694-3.141,2.062-4.746L205.564,189.419z M207.823,191.341l-2.12,2.49
		c-0.628,0.737-0.934,1.446-0.916,2.131s0.35,1.3,0.992,1.849c0.662,0.563,1.365,0.823,2.107,0.782
		c0.74-0.043,1.409-0.401,2.008-1.079l2.176-2.556L207.823,191.341z"/>
	<path fill="#FFFFFF" d="M192.078,198.835l-5.848,5.127l-1.938-2.213l8.601-7.541l11.719,13.365l-2.754,2.413L192.078,198.835z"/>
	<path fill="#FFFFFF" d="M176.465,211.294l5.412-3.455l-0.941-3.743l3.281-2.097l3.988,18.541l-2.859,1.826l-15.173-11.4
		l3.282-2.096L176.465,211.294z M182.641,210.87l-3.746,2.394l5.463,4.403L182.641,210.87z"/>
	<path fill="#FFFFFF" d="M169.207,221.907l-0.055,8.819l-3.646,1.656l0.625-12.727l-2.666-5.867l3.39-1.541l2.666,5.867l10,7.9
		l-3.656,1.659L169.207,221.907z"/>
	<path fill="#FFFFFF" d="M126.665,225.37l6.413-0.304l1.048-3.715l3.89-0.184l-5.771,18.064l-3.391,0.16l-7.481-17.441l3.89-0.182
		L126.665,225.37z M132.23,228.077l-4.438,0.209l2.545,6.541L132.23,228.077z"/>
	<path fill="#FFFFFF" d="M106.375,222.421c0.746-0.709,1.743-1.209,2.989-1.502c1.247-0.293,2.598-0.354,4.053-0.187
		c1.527,0.179,2.829,0.666,3.903,1.468c1.074,0.801,1.851,1.873,2.329,3.215c0.479,1.342,0.627,2.871,0.444,4.586l-0.14,1.201
		c-0.205,1.762-0.68,3.252-1.424,4.473c-0.744,1.222-1.716,2.107-2.915,2.66c-1.199,0.554-2.55,0.742-4.054,0.565
		c-2.094-0.243-3.673-0.934-4.736-2.067c-1.064-1.138-1.595-2.67-1.591-4.604l3.54,0.412c0.045,1.029,0.316,1.812,0.815,2.344
		c0.499,0.533,1.233,0.855,2.204,0.97c1.236,0.146,2.232-0.211,2.987-1.063c0.755-0.855,1.243-2.199,1.464-4.033l0.132-1.129
		c0.215-1.851,0.026-3.289-0.567-4.316c-0.593-1.027-1.568-1.621-2.927-1.779c-1.366-0.158-2.374,0.02-3.023,0.533l-0.354,3.043
		l3.311,0.385l-0.312,2.68l-6.948-0.807L106.375,222.421z"/>
	<path fill="#FFFFFF" d="M93.736,220.419l6.164,1.797l2.197-3.174l3.738,1.092l-11.327,15.209l-3.258-0.948l-1.412-18.927
		l3.739,1.091L93.736,220.419z M98.121,224.788l-4.267-1.244l0.282,7.013L98.121,224.788z"/>
	<path fill="#FFFFFF" d="M85.289,213.191l3.367,1.438l-6.979,16.347l-3.368-1.438L85.289,213.191z"/>
	<path fill="#FFFFFF" d="M70.075,204.927l3.165,1.845l0.278,13.69l5.883-10.104l3.165,1.842l-8.94,15.361l-3.165-1.845
		l-0.276-13.719l-5.896,10.127l-3.154-1.836L70.075,204.927z"/>
	<path fill="#FFFFFF" d="M52.944,187.302l1.677,2.021l-19.027,7.295l-1.677-2.02L52.944,187.302z"/>
	<path fill="#FFFFFF" d="M28.878,162.499l5.888-2.135l1.248,3.442l-16.708,6.06l-2.364-6.519c-0.455-1.254-0.626-2.44-0.512-3.561
		c0.113-1.119,0.5-2.088,1.159-2.906c0.659-0.82,1.528-1.426,2.607-1.816c1.637-0.594,3.132-0.502,4.482,0.277
		c1.352,0.777,2.387,2.158,3.105,4.139L28.878,162.499z M26.09,163.511l-1.115-3.073c-0.33-0.912-0.796-1.527-1.398-1.853
		c-0.602-0.321-1.3-0.34-2.096-0.051c-0.819,0.297-1.394,0.776-1.724,1.442s-0.349,1.426-0.056,2.279l1.145,3.156L26.09,163.511z"/>
	<path fill="#FFFFFF" d="M27.38,146.118l-1.547-7.621l2.883-0.586l2.275,11.209l-17.418,3.537l-0.729-3.591L27.38,146.118z"/>
	<path fill="#FFFFFF" d="M24.322,126.364l0.31,6.413l3.717,1.043l0.188,3.89l-18.072-5.75l-0.164-3.392l17.432-7.502l0.188,3.89
		L24.322,126.364z M21.621,131.934l-0.214-4.438l-6.537,2.553L21.621,131.934z"/>
	<path fill="#FFFFFF" d="M18.7,114.813l-7.638-4.413l0.364-3.987l10.75,6.842l6.419,0.587l-0.339,3.708l-6.419-0.587l-11.812,4.78
		l0.365-4L18.7,114.813z"/>
	<path fill="#FFFFFF" d="M36.738,76.116l-2.915,5.721l2.709,2.75l-1.769,3.47L21.931,74.093l1.541-3.023l18.856,2.142l-1.768,3.47
		L36.738,76.116z M31.628,79.609l2.018-3.959l-6.941-1.03L31.628,79.609z"/>
	<path fill="#FFFFFF" d="M49.357,60c0.243,0.999,0.183,2.112-0.182,3.34c-0.365,1.228-0.982,2.431-1.853,3.609
		c-0.913,1.238-1.984,2.124-3.213,2.658c-1.229,0.534-2.545,0.677-3.947,0.425c-1.402-0.251-2.803-0.882-4.2-1.894l-0.973-0.718
		c-1.428-1.054-2.485-2.206-3.175-3.458s-0.977-2.535-0.86-3.851c0.117-1.316,0.624-2.582,1.522-3.8
		c1.251-1.696,2.635-2.724,4.148-3.083c1.515-0.359,3.109-0.057,4.785,0.906l-2.116,2.868c-0.916-0.473-1.729-0.625-2.439-0.457
		s-1.356,0.646-1.936,1.431c-0.739,1.002-0.926,2.043-0.56,3.122c0.366,1.08,1.29,2.172,2.771,3.275l0.914,0.674
		c1.499,1.106,2.843,1.657,4.029,1.653c1.186-0.004,2.186-0.557,2.997-1.656c0.816-1.106,1.163-2.07,1.04-2.89l-2.466-1.819
		l-1.979,2.682l-2.171-1.602l4.153-5.628L49.357,60z"/>
	<path fill="#FFFFFF" d="M57.37,50.01l-4.616,4.463l1.669,3.481l-2.8,2.707l-7.599-17.376l2.439-2.359l17.138,8.152l-2.8,2.707
		L57.37,50.01z M51.403,51.653l3.193-3.089l-6.23-3.229L51.403,51.653z"/>
	<path fill="#FFFFFF" d="M67.848,46.227l-2.916,2.217l-10.756-14.15l2.916-2.217L67.848,46.227z"/>
	<path fill="#FFFFFF" d="M82.545,37.084l-3.165,1.842l-12.045-6.521l5.884,10.107l-3.165,1.842l-8.941-15.36l3.165-1.843
		l12.066,6.536L70.45,23.56l3.154-1.836L82.545,37.084z"/>
	<path fill="#FFFFFF" d="M106.325,30.936l-2.586,0.452l3.123-20.138l2.585-0.452L106.325,30.936z"/>
</g>
</svg>
