<?xml version="1.0" encoding="utf-8"?>
<!DOCTYPE svg PUBLIC "-//W3C//DTD SVG 1.1//EN" "http://www.w3.org/Graphics/SVG/1.1/DTD/svg11.dtd">
<svg version="1.1" xmlns="http://www.w3.org/2000/svg" xmlns:xlink="http://www.w3.org/1999/xlink">
<g>
	<path fill="#FFFFFF" d="M140.914,22.856c-0.295,1.895-1.123,3.336-2.482,4.326c-1.361,0.99-3.08,1.399-5.154,1.227
		c-2.271-0.188-3.993-1.1-5.17-2.737c-1.174-1.637-1.651-3.789-1.43-6.458l0.088-1.083c0.144-1.703,0.566-3.179,1.273-4.427
		s1.648-2.172,2.82-2.773c1.174-0.601,2.498-0.84,3.973-0.718c2.045,0.169,3.645,0.853,4.805,2.052
		c1.158,1.198,1.752,2.795,1.783,4.79l-3.65-0.302c0.006-1.151-0.244-2.007-0.748-2.567c-0.506-0.56-1.317-0.887-2.438-0.979
		c-1.215-0.101-2.162,0.26-2.838,1.082c-0.678,0.822-1.1,2.148-1.268,3.98l-0.111,1.338c-0.158,1.914,0.016,3.337,0.523,4.269
		c0.506,0.932,1.383,1.45,2.633,1.553c1.127,0.093,1.99-0.094,2.588-0.563c0.598-0.469,0.981-1.239,1.154-2.311L140.914,22.856z"/>
	<path fill="#FFFFFF" d="M146.445,27.172l7.568,1.778l-0.673,2.864l-11.135-2.616l4.063-17.302l3.564,0.838L146.445,27.172z"/>
	<path fill="#FFFFFF" d="M158.566,33.768l-3.459-1.202l5.834-16.789l3.459,1.202L158.566,33.768z"/>
	<path fill="#FFFFFF" d="M176.479,35.38c-0.959,1.66-2.252,2.707-3.877,3.139s-3.375,0.194-5.25-0.715
		c-2.05-0.995-3.328-2.467-3.832-4.417c-0.506-1.95-0.177-4.13,0.994-6.539l0.475-0.977c0.746-1.538,1.674-2.761,2.783-3.669
		c1.108-0.908,2.319-1.432,3.631-1.569c1.311-0.138,2.633,0.117,3.965,0.763c1.846,0.895,3.092,2.11,3.74,3.646
		c0.646,1.535,0.625,3.239-0.064,5.111l-3.295-1.599c0.42-1.071,0.496-1.959,0.227-2.664c-0.268-0.705-0.908-1.302-1.918-1.792
		c-1.098-0.533-2.111-0.538-3.039-0.016s-1.799,1.608-2.617,3.255l-0.586,1.208c-0.838,1.728-1.188,3.118-1.053,4.17
		c0.137,1.052,0.769,1.852,1.896,2.399c1.018,0.494,1.889,0.63,2.617,0.408c0.727-0.222,1.363-0.802,1.908-1.74L176.479,35.38z"/>
	<path fill="#FFFFFF" d="M184.027,39.029l-2.736,0.587l-2.914,4.16l-2.998-2.101l10.197-14.558l2.998,2.101l-4.621,6.599
		l2.586-0.885l7.064-2.191l3.688,2.584l-9.699,2.848l-0.348,11.814l-3.568-2.5L184.027,39.029z"/>
	<path fill="#FFFFFF" d="M195.24,60.125l-1.734-1.97l18.811-7.838l1.734,1.97L195.24,60.125z"/>
	<path fill="#FFFFFF" d="M215.283,74.595l-5.551,2.899l-1.695-3.246l15.754-8.229l3.211,6.146c0.617,1.183,0.945,2.336,0.98,3.461
		c0.037,1.124-0.217,2.136-0.762,3.036c-0.546,0.899-1.326,1.615-2.343,2.146c-1.545,0.806-3.037,0.914-4.479,0.322
		c-1.443-0.592-2.652-1.821-3.629-3.689L215.283,74.595z M217.914,73.222l1.514,2.9c0.449,0.858,0.992,1.408,1.631,1.647
		c0.642,0.24,1.336,0.164,2.086-0.228c0.771-0.403,1.277-0.956,1.517-1.659c0.239-0.703,0.155-1.459-0.248-2.267l-1.556-2.976
		L217.914,73.222z"/>
	<path fill="#FFFFFF" d="M223.27,92.235l-0.924-2.768l-6.173,2.059l-1.159-3.474l16.86-5.625l2.09,6.264
		c0.664,1.992,0.731,3.676,0.205,5.053s-1.603,2.336-3.224,2.877c-1.149,0.384-2.19,0.455-3.125,0.213
		c-0.936-0.241-1.799-0.792-2.592-1.651l-5.672,5.947l-0.162,0.054l-1.244-3.729L223.27,92.235z M225.16,88.528l0.934,2.802
		c0.291,0.872,0.738,1.474,1.342,1.804c0.604,0.33,1.295,0.366,2.076,0.105c0.795-0.265,1.344-0.7,1.648-1.303
		c0.304-0.603,0.303-1.373-0.01-2.307l-0.933-2.791L225.16,88.528z"/>
	<path fill="#FFFFFF" d="M229.046,111.891l-1.211-6.926l-4.688,0.818l1.42,8.129l-2.898,0.506l-2.049-11.736l17.508-3.057
		l2.045,11.713l-2.922,0.51l-1.414-8.105l-4.174,0.729l1.209,6.926L229.046,111.891z"/>
	<path fill="#FFFFFF" d="M226.714,125.059c0.69-0.02,1.216-0.278,1.572-0.778c0.354-0.498,0.723-1.388,1.098-2.668
		c0.375-1.281,0.753-2.297,1.13-3.048c1.032-2.049,2.473-3.099,4.319-3.15c0.959-0.027,1.824,0.22,2.592,0.739
		c0.769,0.519,1.378,1.28,1.828,2.281c0.451,1.001,0.695,2.132,0.729,3.393c0.035,1.269-0.162,2.406-0.594,3.412
		c-0.432,1.006-1.059,1.795-1.881,2.367c-0.824,0.572-1.768,0.873-2.834,0.903l-0.102-3.661c0.813-0.022,1.438-0.297,1.875-0.822
		c0.438-0.525,0.643-1.252,0.617-2.18c-0.025-0.895-0.234-1.585-0.627-2.07c-0.392-0.485-0.896-0.72-1.517-0.702
		c-0.575,0.017-1.053,0.32-1.428,0.913c-0.373,0.593-0.716,1.459-1.024,2.6c-0.568,2.1-1.304,3.64-2.203,4.618
		c-0.9,0.979-2.041,1.484-3.425,1.523c-1.538,0.045-2.762-0.504-3.668-1.643c-0.905-1.14-1.389-2.693-1.442-4.662
		c-0.039-1.367,0.176-2.618,0.645-3.755c0.469-1.137,1.131-2.013,1.984-2.627c0.853-0.614,1.854-0.938,3.002-0.97l0.104,3.673
		c-1.961,0.056-2.908,1.254-2.842,3.598c0.023,0.87,0.219,1.544,0.588,2.022C225.58,124.847,226.08,125.076,226.714,125.059z"/>
	<path fill="#FFFFFF" d="M225.525,140.454c0.688,0.084,1.244-0.095,1.67-0.533c0.428-0.438,0.922-1.265,1.484-2.476
		c0.562-1.209,1.088-2.157,1.573-2.844c1.328-1.871,2.908-2.692,4.742-2.469c0.953,0.117,1.771,0.49,2.45,1.119
		c0.683,0.628,1.171,1.473,1.468,2.527c0.297,1.059,0.369,2.213,0.215,3.465c-0.153,1.261-0.521,2.354-1.099,3.283
		c-0.577,0.931-1.315,1.617-2.215,2.061c-0.897,0.441-1.877,0.6-2.936,0.471l0.447-3.636c0.807,0.099,1.467-0.078,1.977-0.532
		c0.512-0.453,0.822-1.142,0.936-2.063c0.109-0.889,0.007-1.602-0.309-2.141c-0.314-0.539-0.779-0.847-1.395-0.922
		c-0.572-0.07-1.088,0.159-1.547,0.688c-0.459,0.53-0.928,1.336-1.404,2.417c-0.875,1.99-1.832,3.402-2.869,4.234
		c-1.035,0.832-2.24,1.164-3.615,0.996c-1.524-0.188-2.652-0.912-3.379-2.174s-0.971-2.869-0.729-4.824
		c0.168-1.356,0.565-2.563,1.2-3.617c0.634-1.053,1.418-1.819,2.354-2.299c0.938-0.479,1.976-0.649,3.113-0.511l-0.447,3.647
		c-1.946-0.239-3.063,0.805-3.351,3.131c-0.104,0.863-0.012,1.561,0.279,2.088C224.436,140.074,224.896,140.377,225.525,140.454z"/>
	<path fill="#FFFFFF" d="M215.15,156.464l0.926-2.456l15.752,12.93l-0.926,2.455L215.15,156.464z"/>
	<path fill="#FFFFFF" d="M205.664,189.214c-1.496-1.198-2.336-2.633-2.52-4.305c-0.185-1.673,0.315-3.366,1.498-5.083
		c1.291-1.877,2.938-2.918,4.942-3.125c2.004-0.206,4.108,0.449,6.313,1.968l0.896,0.616c1.408,0.969,2.479,2.07,3.209,3.305
		c0.729,1.233,1.065,2.51,1.004,3.825s-0.51,2.585-1.35,3.806c-1.164,1.688-2.554,2.738-4.169,3.147
		c-1.614,0.409-3.297,0.132-5.043-0.833l2.076-3.018c0.996,0.576,1.863,0.785,2.601,0.627c0.735-0.16,1.424-0.703,2.062-1.627
		c0.69-1.006,0.85-2.008,0.473-3.002c-0.377-0.996-1.318-2.021-2.824-3.078l-1.105-0.76c-1.582-1.09-2.903-1.646-3.965-1.67
		c-1.061-0.023-1.945,0.48-2.656,1.514c-0.641,0.933-0.907,1.773-0.797,2.525c0.109,0.752,0.586,1.469,1.433,2.148L205.664,189.214z
		"/>
	<path fill="#FFFFFF" d="M199.173,191.867l-5.301,5.689l-2.151-2.006l7.797-8.369l13.004,12.115l-2.496,2.68L199.173,191.867z"/>
	<path fill="#FFFFFF" d="M187.447,199.118l2.756-2.411l11.701,13.378l-2.756,2.411L187.447,199.118z"/>
	<path fill="#FFFFFF" d="M177.177,213.907c-0.971-1.654-1.241-3.296-0.813-4.923c0.426-1.627,1.498-3.029,3.215-4.211
		c1.877-1.291,3.789-1.674,5.734-1.15c1.944,0.523,3.678,1.891,5.192,4.096l0.617,0.895c0.967,1.408,1.571,2.82,1.813,4.234
		c0.24,1.414,0.099,2.726-0.43,3.932c-0.527,1.207-1.402,2.23-2.623,3.07c-1.689,1.162-3.361,1.646-5.016,1.45
		c-1.656-0.194-3.127-1.056-4.412-2.581l3.018-2.074c0.723,0.895,1.457,1.398,2.203,1.514s1.58-0.146,2.506-0.782
		c1.006-0.69,1.512-1.569,1.517-2.635c0.004-1.065-0.511-2.358-1.537-3.884l-0.763-1.105c-1.088-1.583-2.123-2.574-3.104-2.977
		c-0.981-0.401-1.989-0.246-3.021,0.464c-0.933,0.642-1.482,1.333-1.648,2.073c-0.166,0.742,0.023,1.582,0.57,2.521L177.177,213.907
		z"/>
	<path fill="#FFFFFF" d="M170.27,218.675l0.842-2.669l-2.176-4.588l3.309-1.57l7.617,16.06l-3.31,1.569l-3.452-7.279l-0.511,2.688
		l-1.586,7.225l-4.067,1.931l2.315-9.841l-10.101-6.141l3.938-1.867L170.27,218.675z"/>
	<path fill="#FFFFFF" d="M146.378,217.975l2.572-0.524l-2.541,20.219l-2.572,0.526L146.378,217.975z"/>
	<path fill="#FFFFFF" d="M123.875,228.178l0.233-6.258l3.662,0.137l-0.662,17.762l-6.929-0.258
		c-1.333-0.051-2.498-0.338-3.492-0.863c-0.995-0.525-1.748-1.248-2.259-2.168c-0.511-0.918-0.746-1.95-0.703-3.098
		c0.065-1.74,0.711-3.091,1.94-4.051s2.896-1.4,5.002-1.322L123.875,228.178z M123.766,231.143l-3.27-0.121
		c-0.968-0.037-1.714,0.164-2.239,0.601c-0.525,0.437-0.804,1.077-0.835,1.924c-0.033,0.87,0.197,1.583,0.69,2.14
		c0.492,0.556,1.189,0.857,2.091,0.907l3.355,0.125L123.766,231.143z"/>
	<path fill="#FFFFFF" d="M104.597,226.384l2.862,0.566l1.262-6.384l3.593,0.711l-3.447,17.436l-6.479-1.279
		c-2.06-0.408-3.558-1.182-4.494-2.319c-0.937-1.14-1.239-2.548-0.907-4.224c0.235-1.189,0.688-2.132,1.361-2.824
		c0.672-0.691,1.577-1.17,2.716-1.436L98.7,218.76l0.033-0.167l3.856,0.763L104.597,226.384z M106.884,229.859l-2.898-0.572
		c-0.902-0.18-1.646-0.087-2.232,0.273s-0.958,0.944-1.118,1.752c-0.163,0.821-0.057,1.515,0.317,2.078
		c0.374,0.563,1.044,0.939,2.01,1.131l2.886,0.57L106.884,229.859z"/>
	<path fill="#FFFFFF" d="M84.658,221.688l6.618,2.375l1.607-4.48l-7.767-2.787l0.993-2.77l11.214,4.022l-6.001,16.729l-11.191-4.016
		l1.001-2.791l7.745,2.777l1.43-3.986l-6.618-2.375L84.658,221.688z"/>
	<path fill="#FFFFFF" d="M74.383,213.146c-0.326,0.609-0.361,1.192-0.104,1.75c0.256,0.558,0.848,1.314,1.774,2.275
		c0.926,0.96,1.623,1.791,2.088,2.491c1.267,1.913,1.465,3.685,0.595,5.313c-0.453,0.847-1.094,1.476-1.927,1.885
		c-0.832,0.408-1.794,0.562-2.887,0.457c-1.093-0.104-2.196-0.452-3.309-1.047c-1.12-0.599-2.009-1.334-2.669-2.207
		c-0.659-0.873-1.034-1.81-1.124-2.808c-0.089-0.998,0.117-1.968,0.619-2.907l3.23,1.726c-0.383,0.718-0.455,1.396-0.216,2.036
		c0.24,0.64,0.769,1.179,1.587,1.615c0.79,0.422,1.493,0.582,2.109,0.481c0.616-0.101,1.07-0.423,1.361-0.968
		c0.272-0.51,0.244-1.074-0.086-1.692c-0.329-0.618-0.912-1.346-1.749-2.18c-1.542-1.534-2.516-2.935-2.918-4.201
		c-0.403-1.269-0.278-2.511,0.373-3.731c0.725-1.355,1.806-2.146,3.245-2.369c1.439-0.225,3.027,0.127,4.764,1.056
		c1.206,0.646,2.187,1.45,2.941,2.422s1.188,1.979,1.298,3.024c0.11,1.047-0.105,2.074-0.646,3.088l-3.241-1.73
		c0.924-1.73,0.352-3.146-1.715-4.251c-0.768-0.409-1.451-0.573-2.048-0.491C75.13,212.266,74.682,212.586,74.383,213.146z"/>
	<path fill="#FFFFFF" d="M61.622,204.473c-0.414,0.555-0.537,1.125-0.367,1.715c0.169,0.588,0.639,1.428,1.41,2.518
		c0.771,1.089,1.333,2.016,1.687,2.777c0.963,2.082,0.892,3.863-0.215,5.343c-0.575,0.771-1.305,1.293-2.189,1.571
		c-0.884,0.278-1.859,0.285-2.924,0.017s-2.102-0.779-3.112-1.535c-1.017-0.76-1.785-1.622-2.305-2.585
		c-0.52-0.962-0.749-1.943-0.687-2.943c0.063-1,0.413-1.928,1.051-2.781l2.933,2.192c-0.487,0.652-0.661,1.313-0.521,1.981
		c0.14,0.668,0.582,1.279,1.324,1.836c0.717,0.535,1.388,0.802,2.012,0.796c0.625-0.006,1.122-0.256,1.492-0.752
		c0.346-0.462,0.403-1.024,0.171-1.687s-0.699-1.468-1.4-2.418c-1.293-1.75-2.043-3.281-2.25-4.595s0.104-2.524,0.933-3.632
		c0.921-1.23,2.11-1.85,3.566-1.854s2.972,0.584,4.549,1.765c1.095,0.817,1.942,1.765,2.542,2.838
		c0.6,1.073,0.875,2.136,0.826,3.187s-0.417,2.035-1.104,2.955l-2.942-2.201c1.175-1.57,0.823-3.058-1.053-4.461
		c-0.697-0.521-1.348-0.787-1.951-0.797C62.495,203.714,62.002,203.964,61.622,204.473z"/>
	<path fill="#FFFFFF" d="M52.86,187.516l1.677,2.02l-19.028,7.295l-1.677-2.02L52.86,187.516z"/>
	<path fill="#FFFFFF" d="M29.063,163.073c1.781-0.71,3.444-0.731,4.988-0.064c1.544,0.667,2.771,1.938,3.679,3.813
		c0.994,2.051,1.085,3.998,0.275,5.843c-0.811,1.845-2.421,3.351-4.831,4.519l-0.978,0.475c-1.538,0.744-3.024,1.131-4.458,1.156
		c-1.434,0.025-2.708-0.313-3.823-1.017c-1.114-0.702-1.994-1.722-2.64-3.055c-0.895-1.847-1.121-3.571-0.679-5.179
		c0.442-1.606,1.514-2.932,3.216-3.974l1.597,3.295c-0.994,0.581-1.603,1.231-1.829,1.951c-0.225,0.72-0.093,1.585,0.396,2.597
		c0.533,1.099,1.325,1.729,2.376,1.894c1.051,0.165,2.409-0.147,4.071-0.935l1.208-0.586c1.729-0.839,2.865-1.713,3.409-2.623
		s0.543-1.93-0.003-3.058c-0.493-1.019-1.094-1.665-1.802-1.94c-0.708-0.276-1.567-0.215-2.576,0.184L29.063,163.073z"/>
	<path fill="#FFFFFF" d="M29.977,156.137l-2.318-7.422l2.808-0.877l3.41,10.918l-16.965,5.299l-1.092-3.496L29.977,156.137z"/>
	<path fill="#FFFFFF" d="M29.491,142.346l0.724,3.59l-17.422,3.516l-0.724-3.59L29.491,142.346z"/>
	<path fill="#FFFFFF" d="M21.763,126.082c1.917-0.02,3.476,0.561,4.675,1.738c1.199,1.179,1.885,2.808,2.056,4.884
		c0.187,2.271-0.43,4.12-1.852,5.548c-1.421,1.428-3.466,2.252-6.135,2.473l-1.083,0.09c-1.703,0.141-3.229-0.037-4.576-0.529
		c-1.347-0.493-2.414-1.27-3.199-2.327c-0.786-1.058-1.239-2.324-1.361-3.801c-0.168-2.044,0.243-3.735,1.235-5.075
		c0.992-1.339,2.469-2.188,4.432-2.545l0.301,3.648c-1.136,0.185-1.939,0.57-2.409,1.16c-0.47,0.59-0.659,1.444-0.566,2.563
		c0.101,1.217,0.612,2.092,1.533,2.624c0.922,0.531,2.3,0.73,4.134,0.596l1.338-0.109c1.914-0.158,3.29-0.563,4.125-1.217
		c0.836-0.652,1.203-1.604,1.1-2.853c-0.093-1.128-0.42-1.948-0.981-2.461s-1.384-0.767-2.469-0.759L21.763,126.082z"/>
	<path fill="#FFFFFF" d="M21.042,117.745l1.903,2.053l5.064,0.379l-0.273,3.652L10.012,122.5l0.274-3.651l8.034,0.602l-2.083-1.772
		l-5.493-4.952l0.336-4.492l7.404,6.884l10.333-5.739l-0.325,4.347L21.042,117.745z"/>
	<path fill="#FFFFFF" d="M33.462,97.318l-0.813,2.495L16.327,87.612l0.813-2.495L33.462,97.318z"/>
	<path fill="#FFFFFF" d="M35.736,72.708l5.316,3.31l-1.936,3.109l-15.088-9.395l3.665-5.886c0.706-1.133,1.533-2,2.483-2.603
		c0.95-0.602,1.951-0.896,3.002-0.884c1.052,0.013,2.064,0.322,3.039,0.929c1.479,0.92,2.329,2.152,2.552,3.695
		s-0.223,3.21-1.337,4.999L35.736,72.708z M33.218,71.14l1.729-2.777c0.512-0.822,0.708-1.569,0.59-2.242
		c-0.118-0.672-0.536-1.232-1.254-1.68c-0.739-0.46-1.472-0.615-2.199-0.463s-1.336,0.606-1.828,1.364l-1.774,2.85L33.218,71.14z"/>
	<path fill="#FFFFFF" d="M46.867,56.87l-1.913,2.203l4.914,4.265l-2.4,2.766l-13.423-11.65l4.329-4.987
		c1.376-1.586,2.791-2.502,4.245-2.75c1.454-0.247,2.826,0.189,4.116,1.31c0.916,0.795,1.508,1.656,1.775,2.583
		c0.268,0.927,0.233,1.951-0.103,3.071l8.006,1.856l0.129,0.112l-2.576,2.969L46.867,56.87z M42.714,57.129l1.937-2.231
		c0.603-0.694,0.893-1.385,0.87-2.073c-0.022-0.688-0.344-1.301-0.965-1.84c-0.633-0.549-1.287-0.802-1.962-0.757
		c-0.674,0.045-1.334,0.439-1.98,1.183l-1.928,2.222L42.714,57.129z"/>
	<path fill="#FFFFFF" d="M60.826,41.878l-5.338,4.576l3.098,3.614l6.265-5.37l1.915,2.234l-9.045,7.753L46.153,41.191l9.027-7.738
		l1.93,2.252l-6.247,5.354l2.756,3.216l5.339-4.576L60.826,41.878z"/>
	<path fill="#FFFFFF" d="M73.338,37.159c-0.37-0.585-0.86-0.903-1.47-0.956c-0.611-0.052-1.563,0.087-2.855,0.418
		s-2.359,0.526-3.198,0.584c-2.289,0.157-3.926-0.546-4.914-2.107c-0.513-0.812-0.742-1.68-0.687-2.605
		c0.056-0.926,0.398-1.838,1.028-2.737c0.63-0.899,1.479-1.686,2.545-2.36c1.073-0.678,2.152-1.088,3.237-1.23
		c1.084-0.142,2.083-0.005,2.996,0.41s1.653,1.073,2.223,1.974l-3.096,1.957c-0.435-0.688-0.989-1.085-1.664-1.193
		c-0.675-0.108-1.404,0.086-2.188,0.582c-0.757,0.479-1.244,1.01-1.461,1.595c-0.218,0.585-0.161,1.139,0.169,1.662
		c0.309,0.488,0.813,0.742,1.514,0.761c0.7,0.02,1.62-0.128,2.759-0.444c2.096-0.583,3.794-0.737,5.095-0.462
		c1.3,0.275,2.32,0.998,3.06,2.167c0.822,1.3,0.975,2.631,0.458,3.992c-0.517,1.362-1.607,2.568-3.271,3.621
		c-1.156,0.73-2.342,1.184-3.559,1.361c-1.217,0.177-2.307,0.055-3.271-0.366c-0.964-0.42-1.752-1.116-2.366-2.086l3.106-1.963
		c1.048,1.658,2.563,1.86,4.543,0.608c0.736-0.465,1.216-0.978,1.439-1.538C73.735,38.244,73.677,37.695,73.338,37.159z"/>
	<path fill="#FFFFFF" d="M87.176,30.354c-0.277-0.634-0.713-1.022-1.309-1.167c-0.596-0.145-1.558-0.15-2.885-0.019
		c-1.328,0.131-2.411,0.162-3.25,0.093c-2.286-0.192-3.798-1.134-4.538-2.828c-0.384-0.88-0.479-1.773-0.284-2.68
		c0.195-0.906,0.672-1.756,1.431-2.549c0.759-0.793,1.717-1.442,2.873-1.947c1.163-0.508,2.292-0.75,3.386-0.726
		c1.094,0.024,2.061,0.311,2.899,0.859c0.839,0.549,1.472,1.312,1.898,2.288l-3.356,1.465c-0.326-0.746-0.813-1.223-1.464-1.432
		c-0.65-0.209-1.401-0.128-2.251,0.243c-0.821,0.358-1.383,0.81-1.686,1.355c-0.304,0.545-0.332,1.102-0.084,1.668
		c0.231,0.53,0.691,0.857,1.381,0.982c0.689,0.125,1.621,0.118,2.794-0.021c2.16-0.259,3.862-0.154,5.106,0.315
		c1.244,0.469,2.143,1.338,2.696,2.606c0.616,1.41,0.565,2.748-0.151,4.015c-0.717,1.268-1.978,2.295-3.782,3.083
		c-1.253,0.547-2.494,0.816-3.724,0.807c-1.23-0.009-2.289-0.295-3.178-0.857c-0.889-0.562-1.563-1.369-2.022-2.42l3.367-1.47
		c0.785,1.798,2.251,2.228,4.399,1.29c0.798-0.348,1.35-0.782,1.656-1.302C87.404,31.487,87.43,30.936,87.176,30.354z"/>
	<path fill="#FFFFFF" d="M106.241,31.149l-2.585,0.452l3.123-20.138l2.585-0.452L106.241,31.149z"/>
</g>
</svg>
