<?xml version="1.0" encoding="utf-8"?>
<!-- Generator: Adobe Illustrator 16.0.0, SVG Export Plug-In . SVG Version: 6.00 Build 0)  -->
<!DOCTYPE svg PUBLIC "-//W3C//DTD SVG 1.1//EN" "http://www.w3.org/Graphics/SVG/1.1/DTD/svg11.dtd">
<svg version="1.1" id="Layer_1" xmlns="http://www.w3.org/2000/svg" xmlns:xlink="http://www.w3.org/1999/xlink" x="0px" y="0px"
	 width="250px" height="250px" viewBox="0 0 250 250" enable-background="new 0 0 250 250" xml:space="preserve">
<g>
	<path fill="#FFFFFF" d="M146.37,22.692l-6.949-1.067l-1.104,7.179l-3.619-0.557l2.697-17.567l11.439,1.758l-0.451,2.932
		l-7.818-1.201l-0.697,4.537l6.951,1.067L146.37,22.692z"/>
	<path fill="#FFFFFF" d="M151.509,31.552l-3.543-0.93l4.51-17.191l3.541,0.929L151.509,31.552z"/>
	<path fill="#FFFFFF" d="M167.772,37.505l-3.4-1.36l-2.275-13.506l-4.344,10.857l-3.4-1.36l6.604-16.501l3.398,1.36l2.277,13.533
		l4.354-10.881l3.389,1.356L167.772,37.505z"/>
	<path fill="#FFFFFF" d="M173.47,40.825l-3.207-1.77l8.588-15.562l3.207,1.77L173.47,40.825z"/>
	<path fill="#FFFFFF" d="M186.294,43.7c0.4-0.564,0.508-1.139,0.322-1.723c-0.184-0.585-0.676-1.411-1.475-2.48
		s-1.385-1.98-1.758-2.733c-1.018-2.057-0.992-3.838,0.076-5.346c0.555-0.784,1.27-1.327,2.146-1.628
		c0.877-0.302,1.852-0.333,2.922-0.093c1.072,0.24,2.123,0.725,3.152,1.453c1.035,0.734,1.826,1.575,2.371,2.524
		c0.543,0.949,0.799,1.924,0.762,2.926c-0.035,1.002-0.361,1.938-0.979,2.808l-2.988-2.116c0.471-0.664,0.627-1.329,0.469-1.994
		c-0.156-0.665-0.613-1.266-1.371-1.801c-0.73-0.518-1.408-0.766-2.031-0.743c-0.625,0.021-1.115,0.285-1.473,0.79
		c-0.334,0.472-0.375,1.034-0.127,1.689c0.25,0.655,0.736,1.449,1.463,2.382c1.338,1.715,2.127,3.227,2.369,4.534
		c0.24,1.307-0.039,2.525-0.838,3.654c-0.889,1.256-2.063,1.904-3.518,1.945s-2.986-0.507-4.594-1.645
		c-1.115-0.79-1.986-1.714-2.613-2.771c-0.629-1.058-0.932-2.112-0.91-3.164c0.021-1.051,0.365-2.045,1.027-2.981l3,2.123
		c-1.135,1.601-0.744,3.078,1.168,4.433c0.711,0.503,1.369,0.751,1.971,0.744C185.442,44.481,185.927,44.219,186.294,43.7z"/>
	<path fill="#FFFFFF" d="M198.31,60.921l-2.607-2.571l5.348-5.424l-5.084-5.014l-5.348,5.424l-2.609-2.571l12.479-12.656
		l2.607,2.571l-5.055,5.129l5.084,5.014l5.057-5.129l2.607,2.571L198.31,60.921z"/>
	<path fill="#FFFFFF" d="M212.442,66.976l-4.18-5.654l-3.828,2.83l4.904,6.636l-2.365,1.749l-7.082-9.581l14.293-10.564l7.068,9.562
		l-2.387,1.763l-4.891-6.616l-3.406,2.518l4.18,5.654L212.442,66.976z"/>
	<path fill="#FFFFFF" d="M207.806,73.844l15.709-8.314l2.559,4.833c0.73,1.381,1.072,2.781,1.027,4.2s-0.48,2.737-1.303,3.956
		c-0.824,1.219-1.967,2.215-3.426,2.987l-0.723,0.383c-1.461,0.772-2.918,1.159-4.373,1.16c-1.453,0.001-2.783-0.379-3.988-1.142
		c-1.203-0.762-2.174-1.828-2.908-3.197L207.806,73.844z M222.606,70.153l-10.488,5.551l0.828,1.564
		c0.67,1.266,1.596,2.015,2.777,2.245c1.182,0.231,2.545-0.054,4.092-0.854l0.83-0.439c1.598-0.846,2.633-1.816,3.105-2.914
		c0.475-1.098,0.373-2.283-0.301-3.557L222.606,70.153z"/>
	<path fill="#FFFFFF" d="M218.964,107.361l-0.42-2.591l20.098,3.367l0.42,2.591L218.964,107.361z"/>
	<path fill="#FFFFFF" d="M227.394,145.835l1.037-6.954l-7.184-1.072l0.541-3.622l17.578,2.623l-1.707,11.445l-2.934-0.438
		l1.166-7.824l-4.539-0.677l-1.037,6.954L227.394,145.835z"/>
	<path fill="#FFFFFF" d="M218.552,151.036l0.916-3.547l17.209,4.439l-0.914,3.546L218.552,151.036z"/>
	<path fill="#FFFFFF" d="M212.669,167.31l1.348-3.405l13.494-2.332l-10.875-4.298l1.346-3.406l16.529,6.532l-1.346,3.406
		l-13.523,2.334l10.898,4.308l-1.342,3.395L212.669,167.31z"/>
	<path fill="#FFFFFF" d="M209.364,173.041l1.758-3.214l15.594,8.525l-1.756,3.214L209.364,173.041z"/>
	<path fill="#FFFFFF" d="M206.538,185.879c0.566,0.396,1.141,0.502,1.725,0.315s1.408-0.682,2.475-1.484s1.975-1.393,2.727-1.77
		c2.053-1.025,3.834-1.007,5.346,0.055c0.787,0.552,1.332,1.266,1.637,2.141s0.34,1.85,0.104,2.922
		c-0.234,1.072-0.715,2.125-1.439,3.157c-0.73,1.039-1.568,1.832-2.516,2.381c-0.947,0.548-1.922,0.807-2.922,0.774
		c-1.002-0.032-1.939-0.354-2.813-0.967l2.105-2.997c0.666,0.467,1.33,0.621,1.994,0.461s1.264-0.62,1.797-1.379
		c0.514-0.732,0.76-1.411,0.734-2.034c-0.023-0.624-0.289-1.113-0.795-1.469c-0.473-0.332-1.037-0.372-1.691-0.121
		c-0.654,0.252-1.445,0.742-2.375,1.472c-1.711,1.345-3.219,2.141-4.525,2.387s-2.525-0.028-3.658-0.823
		c-1.258-0.884-1.91-2.054-1.959-3.508c-0.047-1.456,0.496-2.989,1.627-4.601c0.787-1.119,1.707-1.994,2.762-2.626
		s2.107-0.938,3.16-0.921c1.051,0.018,2.047,0.355,2.986,1.016l-2.111,3.007c-1.605-1.127-3.082-0.731-4.428,1.187
		c-0.502,0.713-0.746,1.37-0.738,1.974C205.755,185.03,206.019,185.514,206.538,185.879z"/>
	<path fill="#FFFFFF" d="M189.351,197.976l2.561-2.617l5.445,5.327l4.994-5.104l-5.443-5.327l2.561-2.618l12.703,12.432
		l-2.563,2.617l-5.146-5.037l-4.994,5.104l5.146,5.037l-2.561,2.617L189.351,197.976z"/>
	<path fill="#FFFFFF" d="M183.382,212.108l5.637-4.203l-2.846-3.816l-6.615,4.933l-1.758-2.359l9.551-7.121l10.625,14.249
		l-9.533,7.107l-1.773-2.379l6.598-4.917l-2.533-3.396l-5.637,4.203L183.382,212.108z"/>
	<path fill="#FFFFFF" d="M176.481,207.507l8.379,15.675l-4.824,2.578c-1.377,0.736-2.777,1.085-4.195,1.045
		c-1.42-0.04-2.74-0.469-3.963-1.287c-1.221-0.819-2.221-1.957-3-3.414l-0.385-0.721c-0.779-1.458-1.172-2.913-1.18-4.367
		c-0.006-1.455,0.369-2.785,1.127-3.993c0.758-1.207,1.818-2.181,3.186-2.921L176.481,207.507z M180.231,222.292l-5.592-10.465
		l-1.563,0.835c-1.262,0.675-2.008,1.604-2.234,2.785c-0.227,1.183,0.064,2.545,0.871,4.089l0.443,0.829
		c0.852,1.594,1.826,2.624,2.926,3.094c1.1,0.469,2.285,0.363,3.555-0.315L180.231,222.292z"/>
	<path fill="#FFFFFF" d="M143.022,218.797l2.59-0.431l-3.285,20.112l-2.59,0.431L143.022,218.797z"/>
	<path fill="#FFFFFF" d="M104.565,227.383l6.958,1.01l1.043-7.188l3.624,0.526l-2.553,17.589l-11.453-1.663l0.426-2.936l7.828,1.137
		l0.66-4.542l-6.958-1.01L104.565,227.383z"/>
	<path fill="#FFFFFF" d="M99.341,218.563l3.55,0.899l-4.368,17.229l-3.55-0.9L99.341,218.563z"/>
	<path fill="#FFFFFF" d="M83.021,212.739l3.411,1.333l2.383,13.486l4.256-10.892L96.483,218l-6.469,16.554l-3.411-1.333
		l-2.386-13.514l-4.265,10.915l-3.4-1.329L83.021,212.739z"/>
	<path fill="#FFFFFF" d="M77.306,209.47l3.221,1.743l-8.46,15.631l-3.221-1.743L77.306,209.47z"/>
	<path fill="#FFFFFF" d="M64.455,206.696c-0.395,0.568-0.498,1.144-0.309,1.727c0.189,0.583,0.688,1.405,1.495,2.468
		c0.808,1.063,1.401,1.969,1.781,2.72c1.034,2.048,1.022,3.83-0.033,5.346c-0.549,0.788-1.26,1.337-2.134,1.646
		s-1.848,0.348-2.921,0.116s-2.127-0.708-3.163-1.429c-1.042-0.725-1.839-1.56-2.391-2.505c-0.552-0.944-0.814-1.917-0.787-2.919
		c0.028-1.002,0.347-1.94,0.956-2.815l3.006,2.092c-0.465,0.668-0.616,1.334-0.453,1.998c0.163,0.663,0.625,1.26,1.386,1.79
		c0.735,0.512,1.414,0.754,2.038,0.727s1.112-0.294,1.465-0.802c0.33-0.475,0.368-1.038,0.114-1.691
		c-0.254-0.652-0.749-1.442-1.481-2.369c-1.352-1.705-2.154-3.21-2.405-4.515c-0.251-1.306,0.018-2.526,0.808-3.661
		c0.879-1.263,2.046-1.921,3.5-1.974c1.455-0.054,2.991,0.482,4.607,1.607c1.122,0.781,2.001,1.698,2.637,2.75
		c0.636,1.053,0.947,2.104,0.934,3.156c-0.013,1.052-0.347,2.049-1.003,2.99l-3.016-2.099c1.121-1.61,0.719-3.084-1.205-4.423
		c-0.714-0.498-1.374-0.741-1.977-0.729S64.817,206.176,64.455,206.696z"/>
	<path fill="#FFFFFF" d="M52.287,189.557l2.628,2.551l-5.305,5.466l5.124,4.974l5.305-5.466l2.628,2.551l-12.379,12.754
		l-2.627-2.551l5.016-5.168l-5.124-4.974l-5.017,5.168l-2.627-2.551L52.287,189.557z"/>
	<path fill="#FFFFFF" d="M38.108,183.614l4.224,5.621l3.806-2.86l-4.957-6.597l2.352-1.768l7.157,9.525L36.48,198.213l-7.142-9.506
		l2.372-1.782l4.942,6.578l3.387-2.545l-4.224-5.621L38.108,183.614z"/>
	<path fill="#FFFFFF" d="M42.705,176.729l-15.64,8.442l-2.598-4.813c-0.742-1.375-1.096-2.771-1.063-4.191
		c0.034-1.419,0.458-2.741,1.271-3.967c0.814-1.225,1.947-2.23,3.401-3.015l0.72-0.389c1.454-0.785,2.908-1.184,4.362-1.196
		s2.787,0.357,3.997,1.109c1.211,0.752,2.189,1.81,2.934,3.174L42.705,176.729z M27.936,180.541l10.441-5.637l-0.841-1.558
		c-0.681-1.26-1.612-2.001-2.795-2.223c-1.183-0.222-2.544,0.074-4.085,0.888l-0.827,0.446c-1.589,0.858-2.617,1.838-3.081,2.939
		s-0.354,2.286,0.33,3.554L27.936,180.541z"/>
	<path fill="#FFFFFF" d="M31.271,143.297l0.441,2.588l-20.125-3.206l-0.441-2.587L31.271,143.297z"/>
	<path fill="#FFFFFF" d="M22.536,104.875l-0.983,6.962l7.192,1.016l-0.512,3.626l-17.599-2.484l1.618-11.459l2.937,0.415
		l-1.105,7.833l4.545,0.642l0.982-6.963L22.536,104.875z"/>
	<path fill="#FFFFFF" d="M31.33,99.628l-0.885,3.554l-17.246-4.298l0.885-3.553L31.33,99.628z"/>
	<path fill="#FFFFFF" d="M37.084,83.297l-1.318,3.416l-13.477,2.44l10.91,4.211L31.88,96.78l-16.582-6.398l1.318-3.417l13.504-2.443
		l-10.933-4.219l1.314-3.405L37.084,83.297z"/>
	<path fill="#FFFFFF" d="M40.329,77.564l-1.73,3.229l-15.666-8.396l1.73-3.228L40.329,77.564z"/>
	<path fill="#FFFFFF" d="M43.051,64.7c-0.569-0.393-1.145-0.493-1.727-0.302s-1.403,0.693-2.462,1.505s-1.963,1.409-2.712,1.792
		c-2.044,1.042-3.826,1.039-5.347-0.011c-0.79-0.545-1.342-1.254-1.654-2.127c-0.313-0.873-0.355-1.847-0.128-2.921
		s0.698-2.131,1.415-3.169c0.721-1.045,1.553-1.846,2.495-2.401c0.942-0.557,1.914-0.822,2.916-0.799
		c1.002,0.024,1.942,0.339,2.819,0.944l-2.08,3.014c-0.67-0.462-1.336-0.61-2-0.444c-0.663,0.165-1.258,0.63-1.784,1.394
		c-0.509,0.737-0.748,1.417-0.718,2.041c0.029,0.623,0.299,1.11,0.808,1.462c0.476,0.328,1.039,0.363,1.691,0.106
		c0.652-0.257,1.439-0.755,2.363-1.491c1.699-1.359,3.2-2.167,4.505-2.424c1.304-0.257,2.526,0.007,3.665,0.793
		c1.266,0.873,1.929,2.037,1.988,3.492c0.06,1.454-0.47,2.992-1.588,4.613c-0.776,1.125-1.689,2.008-2.739,2.648
		c-1.05,0.64-2.1,0.956-3.152,0.947c-1.052-0.009-2.05-0.339-2.994-0.991l2.086-3.024c1.614,1.114,3.087,0.706,4.418-1.223
		c0.494-0.717,0.734-1.377,0.72-1.979C43.841,65.542,43.573,65.061,43.051,64.7z"/>
	<path fill="#FFFFFF" d="M60.14,52.46l-2.54,2.639l-5.488-5.283L47.16,54.96l5.488,5.283l-2.54,2.639L37.303,50.555l2.54-2.638
		l5.189,4.994l4.953-5.145l-5.189-4.994l2.54-2.639L60.14,52.46z"/>
	<path fill="#FFFFFF" d="M66.025,38.258l-5.604,4.247l2.875,3.794l6.577-4.983l1.777,2.345l-9.496,7.195L51.419,36.69l9.476-7.182
		l1.792,2.364l-6.557,4.97l2.558,3.376l5.604-4.247L66.025,38.258z"/>
	<path fill="#FFFFFF" d="M72.94,42.818l-8.505-15.606l4.802-2.617c1.372-0.748,2.768-1.107,4.187-1.079
		c1.42,0.028,2.744,0.446,3.972,1.255c1.229,0.81,2.238,1.938,3.028,3.39l0.392,0.718c0.791,1.45,1.195,2.903,1.214,4.357
		c0.019,1.454-0.346,2.788-1.093,4.001c-0.748,1.214-1.802,2.196-3.163,2.947L72.94,42.818z M69.07,28.063l5.678,10.419l1.554-0.847
		c1.258-0.686,1.995-1.62,2.212-2.805c0.217-1.184-0.084-2.544-0.904-4.081l-0.45-0.825c-0.864-1.586-1.848-2.609-2.952-3.069
		s-2.288-0.346-3.552,0.344L69.07,28.063z"/>
	<path fill="#FFFFFF" d="M106.316,31.253l-2.585,0.451l3.123-20.138l2.585-0.451L106.316,31.253z"/>
</g>
</svg>
