<?xml version="1.0" encoding="utf-8"?>
<!-- Generator: Adobe Illustrator 16.0.0, SVG Export Plug-In . SVG Version: 6.00 Build 0)  -->
<!DOCTYPE svg PUBLIC "-//W3C//DTD SVG 1.1//EN" "http://www.w3.org/Graphics/SVG/1.1/DTD/svg11.dtd">
<svg version="1.1" id="Layer_1" xmlns="http://www.w3.org/2000/svg" xmlns:xlink="http://www.w3.org/1999/xlink" x="0px" y="0px"
	 width="250px" height="250px" viewBox="0 0 250 250" enable-background="new 0 0 250 250" xml:space="preserve">
<g>
	<path fill="#FFFFFF" d="M144.738,22.291l-6.959-1.006l-1.039,7.188l-3.625-0.524l2.543-17.591l11.453,1.656l-0.424,2.936
		l-7.83-1.132l-0.656,4.543l6.959,1.006L144.738,22.291z"/>
	<path fill="#FFFFFF" d="M154.488,28.582l-6.186-1.724l-2.158,3.2l-3.752-1.045l11.145-15.346l3.268,0.91l1.641,18.907l-3.752-1.045
		L154.488,28.582z M150.051,24.267l4.281,1.192l-0.367-7.009L150.051,24.267z"/>
	<path fill="#FFFFFF" d="M163.035,35.712l-3.385-1.397l6.785-16.428l3.385,1.398L163.035,35.712z"/>
	<path fill="#FFFFFF" d="M170.402,35.978l6.844,3.693l-1.398,2.589l-10.064-5.434l8.441-15.64l3.223,1.739L170.402,35.978z"/>
	<path fill="#FFFFFF" d="M190.305,43.228l-5.676-4.149l-2.809,3.843l6.662,4.87l-1.736,2.375l-9.619-7.031l10.49-14.349l9.598,7.018
		l-1.75,2.395l-6.643-4.855l-2.5,3.419l5.676,4.149L190.305,43.228z"/>
	<path fill="#FFFFFF" d="M187.924,51.162l12.502-12.633l3.887,3.847c1.111,1.099,1.857,2.332,2.238,3.7
		c0.381,1.367,0.361,2.756-0.061,4.165s-1.213,2.701-2.375,3.875l-0.576,0.581c-1.162,1.175-2.438,1.979-3.824,2.415
		c-1.387,0.437-2.77,0.471-4.146,0.104c-1.377-0.366-2.621-1.094-3.732-2.182L187.924,51.162z M200.941,43.214l-8.346,8.433
		l1.258,1.245c1.018,1.008,2.125,1.445,3.322,1.313c1.195-0.133,2.412-0.813,3.648-2.039l0.662-0.668
		c1.27-1.284,1.967-2.521,2.09-3.71c0.123-1.188-0.326-2.29-1.35-3.303L200.941,43.214z"/>
	<path fill="#FFFFFF" d="M208.252,79.071l-1.201-2.333l20.15-3.028l1.203,2.333L208.252,79.071z"/>
	<path fill="#FFFFFF" d="M228.004,112.154l-1.201-6.929l-7.156,1.241l-0.625-3.608l17.512-3.036l1.977,11.402l-2.922,0.507
		l-1.352-7.794l-4.521,0.784l1.201,6.928L228.004,112.154z"/>
	<path fill="#FFFFFF" d="M225.055,123.404l-0.285-6.414l-3.711-1.058l-0.174-3.891l18.049,5.823l0.15,3.39l-17.461,7.434
		l-0.172-3.89L225.055,123.404z M227.777,117.847l0.197,4.438l6.547-2.526L227.777,117.847z"/>
	<path fill="#FFFFFF" d="M220.957,133.744l0.266-3.652l17.727,1.296l-0.268,3.652L220.957,133.744z"/>
	<path fill="#FFFFFF" d="M223.018,140.815l-1.357,7.656l-2.896-0.515l1.998-11.262l17.5,3.104l-0.641,3.606L223.018,140.815z"/>
	<path fill="#FFFFFF" d="M222.375,161.982l2.164-6.69l-4.531-1.465l-2.539,7.852l-2.799-0.905l3.666-11.336l16.912,5.47
		l-3.66,11.313l-2.822-0.913l2.533-7.828l-4.031-1.304l-2.164,6.69L222.375,161.982z"/>
	<path fill="#FFFFFF" d="M214.09,162.209l15.896,7.945l-2.443,4.892c-0.699,1.398-1.639,2.491-2.82,3.279
		c-1.18,0.788-2.506,1.201-3.977,1.239c-1.471,0.039-2.943-0.312-4.422-1.05l-0.73-0.365c-1.479-0.739-2.641-1.699-3.486-2.882
		c-0.848-1.184-1.311-2.486-1.391-3.909s0.223-2.831,0.91-4.226L214.09,162.209z M225.697,172.104l-10.613-5.305l-0.793,1.583
		c-0.639,1.281-0.711,2.47-0.211,3.564c0.498,1.096,1.523,2.04,3.074,2.833l0.84,0.421c1.617,0.808,3.008,1.084,4.176,0.831
		c1.17-0.253,2.074-1.023,2.719-2.313L225.697,172.104z"/>
	<path fill="#FFFFFF" d="M193.902,190.189l1.842-1.869l9.156,18.205l-1.842,1.87L193.902,190.189z"/>
	<path fill="#FFFFFF" d="M168.621,219.336l6.201-3.314l-3.424-6.405l3.23-1.727l8.377,15.675l-10.207,5.455l-1.396-2.616
		l6.975-3.729l-2.162-4.048l-6.201,3.314L168.621,219.336z"/>
	<path fill="#FFFFFF" d="M157.02,220.055l6.004-2.277l-0.158-3.857l3.641-1.381l0.117,18.965l-3.172,1.203l-12.523-14.259
		l3.641-1.381L157.02,220.055z M163.15,220.901l-4.154,1.576l4.447,5.428L163.15,220.901z"/>
	<path fill="#FFFFFF" d="M145.945,219.367l3.555-0.881l4.275,17.252l-3.555,0.881L145.945,219.367z"/>
	<path fill="#FFFFFF" d="M139.838,223.522l-7.699,1.081l-0.41-2.913l11.328-1.59l2.469,17.601l-3.625,0.509L139.838,223.522z"/>
	<path fill="#FFFFFF" d="M119.605,229.553l7.031-0.113l-0.078-4.761l-8.251,0.134l-0.047-2.941l11.912-0.193l0.289,17.771
		l-11.888,0.192l-0.048-2.966l8.227-0.133l-0.07-4.235l-7.029,0.114L119.605,229.553z"/>
	<path fill="#FFFFFF" d="M116.725,221.696l-2.553,17.589l-5.412-0.786c-1.546-0.225-2.879-0.773-3.998-1.647
		c-1.119-0.873-1.927-2.002-2.426-3.386c-0.498-1.385-0.628-2.894-0.391-4.528l0.118-0.81c0.237-1.635,0.785-3.04,1.642-4.215
		c0.857-1.175,1.949-2.023,3.275-2.547c1.326-0.522,2.758-0.677,4.298-0.461L116.725,221.696z M110.974,235.823l1.705-11.742
		l-1.751-0.254c-1.417-0.206-2.568,0.1-3.452,0.917c-0.883,0.817-1.458,2.087-1.725,3.809l-0.135,0.93
		c-0.26,1.788-0.086,3.196,0.521,4.227c0.607,1.029,1.624,1.647,3.049,1.854L110.974,235.823z"/>
	<path fill="#FFFFFF" d="M83.827,211.289l2.35,1.168l-14.451,14.368l-2.35-1.168L83.827,211.289z"/>
	<path fill="#FFFFFF" d="M48.291,196.34l5.08,4.861l5.022-5.247l2.646,2.531L48.75,211.326l-8.361-8.001l2.051-2.143l5.715,5.469
		l3.173-3.316l-5.08-4.861L48.291,196.34z"/>
	<path fill="#FFFFFF" d="M43.998,185.561l4.041,4.99l3.614-1.355l2.451,3.026l-17.977,6.042l-2.136-2.637l9.627-16.355l2.45,3.026
		L43.998,185.561z M45.111,191.649l-2.796-3.453l-3.765,5.922L45.111,191.649z"/>
	<path fill="#FFFFFF" d="M41.159,174.799l1.951,3.1l-15.042,9.468l-1.951-3.099L41.159,174.799z"/>
	<path fill="#FFFFFF" d="M35.298,170.309l-3.443-6.973l2.638-1.303l5.065,10.256l-15.936,7.87L22,176.876L35.298,170.309z"/>
	<path fill="#FFFFFF" d="M23.272,152.887l2.223,6.67l4.516-1.505l-2.608-7.829l2.791-0.93l3.767,11.303l-16.862,5.619l-3.759-11.279
		l2.814-0.938l2.601,7.806l4.019-1.339l-2.223-6.671L23.272,152.887z"/>
	<path fill="#FFFFFF" d="M29.811,147.791l-17.515,3.022l-0.93-5.39c-0.266-1.54-0.156-2.977,0.328-4.312s1.307-2.453,2.468-3.355
		s2.556-1.494,4.184-1.775l0.806-0.139c1.628-0.281,3.134-0.196,4.516,0.255c1.383,0.451,2.528,1.226,3.436,2.324
		s1.499,2.413,1.771,3.943L29.811,147.791z M14.597,146.7l11.692-2.018l-0.301-1.745c-0.243-1.411-0.891-2.41-1.941-2.997
		c-1.051-0.586-2.436-0.739-4.155-0.46l-0.926,0.16c-1.781,0.308-3.066,0.909-3.857,1.806s-1.064,2.054-0.819,3.474L14.597,146.7z"
		/>
	<path fill="#FFFFFF" d="M29.465,113.259l-0.372,2.598l-18.177-9.212l0.372-2.598L29.465,113.259z"/>
	<path fill="#FFFFFF" d="M32.552,74.827l-3.038,6.341l6.55,3.138l-1.582,3.303L18.454,79.93l5-10.437l2.675,1.282l-3.417,7.134
		l4.14,1.982l3.038-6.341L32.552,74.827z"/>
	<path fill="#FFFFFF" d="M41.456,67.409l-3.488,5.392l2.412,3.014l-2.115,3.27L26.936,63.875l1.844-2.85l18.536,4.068l-2.115,3.27
		L41.456,67.409z M36.015,70.359l2.414-3.73l-6.799-1.738L36.015,70.359z"/>
	<path fill="#FFFFFF" d="M50.8,61.373L48.46,64.19L34.786,52.837l2.339-2.818L50.8,61.373z"/>
	<path fill="#FFFFFF" d="M53.256,54.392l5.553-5.442l2.06,2.101L52.7,59.056L40.259,46.362l2.616-2.563L53.256,54.392z"/>
	<path fill="#FFFFFF" d="M66.046,37.532l-5.64,4.198l2.843,3.819l6.619-4.928l1.757,2.36l-9.557,7.113L51.455,35.839l9.538-7.1
		l1.771,2.38l-6.6,4.913l2.529,3.397l5.64-4.198L66.046,37.532z"/>
	<path fill="#FFFFFF" d="M72.942,42.139l-8.365-15.682l4.825-2.573c1.379-0.735,2.778-1.083,4.197-1.042
		c1.419,0.04,2.739,0.471,3.96,1.29c1.221,0.82,2.221,1.959,2.999,3.416l0.385,0.722c0.778,1.458,1.169,2.914,1.175,4.368
		c0.006,1.454-0.371,2.785-1.128,3.991c-0.758,1.207-1.821,2.181-3.189,2.919L72.942,42.139z M69.204,27.351l5.585,10.469
		l1.562-0.833c1.264-0.674,2.009-1.602,2.237-2.784c0.227-1.182-0.062-2.545-0.867-4.089l-0.442-0.829
		c-0.851-1.595-1.825-2.626-2.924-3.096c-1.1-0.47-2.284-0.366-3.555,0.313L69.204,27.351z"/>
	<path fill="#FFFFFF" d="M105.587,31.034l-2.585,0.451l3.123-20.138l2.585-0.451L105.587,31.034z"/>
</g>
</svg>
