<?xml version="1.0" encoding="utf-8"?>
<!DOCTYPE svg PUBLIC "-//W3C//DTD SVG 1.1//EN" "http://www.w3.org/Graphics/SVG/1.1/DTD/svg11.dtd">
<svg version="1.1" xmlns="http://www.w3.org/2000/svg" xmlns:xlink="http://www.w3.org/1999/xlink">
<g>
	<path fill="#FFFFFF" d="M22.545,79.422l-1.886,5.107l13.891,5.13l-1.269,3.435l-13.891-5.13l-1.86,5.038l-2.782-1.027l5.015-13.581
		L22.545,79.422z"/>
	<path fill="#FFFFFF" d="M44.2,70.703l-1.813,3.181l-6.617-3.773l-3.538,6.203l6.617,3.773l-1.814,3.181l-15.439-8.806l1.814-3.181
		l6.257,3.569l3.538-6.204l-6.257-3.568l1.814-3.181L44.2,70.703z"/>
	<path fill="#FFFFFF" d="M48.274,65.507l-2.191,2.933L31.845,57.8l2.192-2.933L48.274,65.507z"/>
	<path fill="#FFFFFF" d="M49.733,53.856l-2.002,2.122l4.733,4.464l-2.513,2.664l-12.93-12.194l4.531-4.805
		c1.44-1.528,2.893-2.384,4.355-2.571c1.462-0.188,2.815,0.307,4.059,1.478c0.882,0.832,1.438,1.716,1.666,2.655
		c0.229,0.937,0.152,1.958-0.229,3.063l7.922,2.187l0.125,0.116l-2.697,2.86L49.733,53.856z M45.574,53.942l2.026-2.149
		c0.631-0.668,0.949-1.347,0.954-2.035c0.007-0.688-0.289-1.313-0.888-1.878c-0.609-0.575-1.253-0.854-1.929-0.838
		c-0.676,0.018-1.352,0.385-2.027,1.101l-2.019,2.141L45.574,53.942z"/>
	<path fill="#FFFFFF" d="M61.531,32.598l-4.278,3.367l9.154,11.637l-2.879,2.265l-9.154-11.638l-4.222,3.32l-1.834-2.332
		l11.38-8.951L61.531,32.598z"/>
	<path fill="#FFFFFF" d="M72.673,31.861l-0.702-8.793l3.49-1.963l0.467,12.734l3.16,5.617l-3.245,1.826l-3.16-5.617l-10.639-7.013
		l3.501-1.969L72.673,31.861z"/>
	<path fill="#FFFFFF" d="M129.439,23.349c0.01-0.692-0.228-1.226-0.711-1.604c-0.482-0.376-1.355-0.779-2.619-1.208
		c-1.264-0.429-2.264-0.847-2.999-1.257c-2.004-1.118-2.991-2.601-2.966-4.448c0.014-0.96,0.297-1.813,0.848-2.559
		c0.552-0.744,1.338-1.321,2.356-1.73c1.019-0.409,2.16-0.604,3.418-0.588c1.271,0.019,2.398,0.265,3.385,0.738
		c0.986,0.473,1.748,1.133,2.285,1.979c0.539,0.845,0.799,1.801,0.783,2.867l-3.66-0.051c0.01-0.813-0.235-1.449-0.744-1.908
		c-0.506-0.459-1.223-0.695-2.149-0.708c-0.896-0.012-1.594,0.167-2.095,0.538c-0.501,0.372-0.756,0.866-0.766,1.485
		c-0.008,0.577,0.276,1.065,0.853,1.464c0.576,0.398,1.428,0.778,2.553,1.134c2.074,0.657,3.582,1.455,4.521,2.395
		c0.938,0.941,1.398,2.104,1.379,3.487c-0.021,1.539-0.618,2.736-1.797,3.595c-1.176,0.858-2.748,1.273-4.717,1.246
		c-1.367-0.02-2.607-0.287-3.724-0.804c-1.117-0.516-1.964-1.213-2.541-2.092c-0.578-0.879-0.858-1.892-0.843-3.04l3.675,0.051
		c-0.028,1.963,1.13,2.959,3.472,2.992c0.871,0.012,1.555-0.155,2.047-0.503C129.18,24.474,129.43,23.983,129.439,23.349z"/>
	<path fill="#FFFFFF" d="M146.705,22.392l-6.943-1.104l-0.748,4.701l8.15,1.297l-0.463,2.904l-11.766-1.869l2.789-17.553
		l11.743,1.866l-0.467,2.929l-8.125-1.291l-0.666,4.184l6.944,1.103L146.705,22.392z"/>
	<path fill="#FFFFFF" d="M163.296,29.127c-0.711,1.781-1.842,3.001-3.389,3.662c-1.548,0.661-3.313,0.674-5.3,0.042
		c-2.17-0.691-3.646-1.965-4.426-3.824c-0.776-1.858-0.762-4.062,0.051-6.614l0.33-1.036c0.521-1.627,1.263-2.972,2.23-4.029
		c0.969-1.059,2.092-1.749,3.369-2.072c1.277-0.324,2.623-0.261,4.033,0.189c1.955,0.622,3.361,1.646,4.223,3.073
		c0.861,1.427,1.082,3.117,0.666,5.069l-3.488-1.111c0.262-1.121,0.211-2.011-0.156-2.669c-0.364-0.66-1.086-1.159-2.155-1.5
		c-1.16-0.37-2.164-0.23-3.009,0.419c-0.844,0.65-1.553,1.848-2.125,3.596l-0.407,1.28c-0.582,1.83-0.729,3.255-0.445,4.277
		c0.285,1.022,1.025,1.723,2.22,2.103c1.078,0.343,1.961,0.354,2.647,0.03c0.688-0.323,1.235-0.987,1.642-1.995L163.296,29.127z"/>
	<path fill="#FFFFFF" d="M179.947,34.594c-0.801,1.556-1.777,2.777-2.93,3.667c-1.154,0.889-2.406,1.389-3.759,1.498
		c-1.352,0.11-2.688-0.176-4.014-0.858c-1.31-0.673-2.315-1.59-3.021-2.75c-0.703-1.157-1.037-2.466-0.998-3.926
		c0.035-1.459,0.441-2.951,1.217-4.474l0.402-0.78c0.801-1.556,1.785-2.781,2.955-3.675c1.17-0.895,2.432-1.395,3.779-1.501
		c1.352-0.105,2.684,0.18,4,0.858c1.318,0.678,2.324,1.597,3.023,2.758c0.696,1.16,1.021,2.477,0.973,3.948
		c-0.047,1.471-0.469,2.981-1.266,4.53L179.947,34.594z M177.018,32.179c0.854-1.658,1.205-3.069,1.055-4.236
		c-0.15-1.166-0.775-2.032-1.875-2.598c-1.092-0.563-2.154-0.571-3.187-0.027s-1.973,1.637-2.823,3.275l-0.398,0.771
		c-0.83,1.613-1.178,3.018-1.043,4.213c0.137,1.195,0.76,2.08,1.875,2.654c1.092,0.563,2.152,0.566,3.18,0.01
		c1.027-0.556,1.967-1.653,2.82-3.292L177.018,32.179z"/>
	<path fill="#FFFFFF" d="M189.232,51.933l-2.92-2.211l1.379-13.626l-7.063,9.323l-2.918-2.211l10.729-14.169l2.92,2.211
		l-1.381,13.654l7.073-9.343l2.91,2.203L189.232,51.933z"/>
	<path fill="#FFFFFF" d="M191.074,53.662l12.934-12.192l3.752,3.979c1.07,1.136,1.773,2.395,2.107,3.774
		c0.334,1.379,0.266,2.767-0.205,4.161c-0.469,1.394-1.305,2.657-2.508,3.791l-0.596,0.56c-1.201,1.135-2.502,1.896-3.904,2.283
		c-1.402,0.387-2.785,0.374-4.148-0.041s-2.582-1.184-3.654-2.31L191.074,53.662z M204.361,46.168l-8.633,8.14l1.213,1.287
		c0.981,1.043,2.074,1.518,3.272,1.426c1.201-0.092,2.44-0.728,3.72-1.911l0.684-0.646c1.314-1.238,2.055-2.451,2.219-3.635
		c0.164-1.183-0.248-2.299-1.234-3.347L204.361,46.168z"/>
	<path fill="#FFFFFF" d="M210.682,70.162c0.569-0.392,0.868-0.893,0.899-1.506c0.028-0.611-0.146-1.558-0.522-2.837
		c-0.377-1.28-0.613-2.338-0.701-3.173c-0.242-2.282,0.399-3.944,1.924-4.989c0.793-0.543,1.652-0.803,2.58-0.782
		c0.926,0.021,1.85,0.331,2.771,0.928c0.923,0.596,1.74,1.414,2.453,2.456c0.717,1.047,1.166,2.11,1.349,3.189
		c0.182,1.08,0.082,2.082-0.3,3.01c-0.383,0.926-1.014,1.691-1.891,2.293l-2.07-3.021c0.673-0.459,1.05-1.028,1.132-1.708
		c0.084-0.678-0.138-1.399-0.662-2.165c-0.507-0.74-1.056-1.206-1.646-1.402c-0.594-0.195-1.145-0.119-1.656,0.23
		c-0.477,0.327-0.711,0.84-0.705,1.541c0.008,0.7,0.189,1.615,0.547,2.742c0.658,2.073,0.877,3.764,0.648,5.074
		c-0.227,1.31-0.912,2.355-2.053,3.137c-1.271,0.869-2.594,1.072-3.973,0.605c-1.38-0.467-2.625-1.511-3.74-3.136
		c-0.771-1.128-1.269-2.297-1.49-3.507c-0.221-1.208-0.139-2.303,0.246-3.281c0.385-0.979,1.051-1.792,1.998-2.442l2.076,3.033
		c-1.619,1.108-1.767,2.629-0.441,4.562c0.492,0.719,1.021,1.18,1.59,1.383S210.158,70.52,210.682,70.162z"/>
	<path fill="#FFFFFF" d="M219.732,112.746l-0.273-2.61l19.877,4.5l0.271,2.61L219.732,112.746z"/>
	<path fill="#FFFFFF" d="M227.755,169.738l1.845-5.122l-13.933-5.017l1.24-3.447l13.932,5.019l1.82-5.055l2.791,1.006l-4.904,13.621
		L227.755,169.738z"/>
	<path fill="#FFFFFF" d="M206.175,178.63l1.787-3.196l6.647,3.721l3.486-6.232l-6.646-3.719l1.786-3.197l15.513,8.68l-1.789,3.196
		l-6.285-3.518l-3.485,6.231l6.285,3.518l-1.789,3.195L206.175,178.63z"/>
	<path fill="#FFFFFF" d="M202.139,183.861l2.17-2.95l14.321,10.524l-2.168,2.95L202.139,183.861z"/>
	<path fill="#FFFFFF" d="M200.773,195.527l1.985-2.139l-4.771-4.427l2.49-2.685l13.027,12.091l-4.49,4.841
		c-1.43,1.539-2.873,2.408-4.334,2.605c-1.463,0.199-2.818-0.283-4.072-1.445c-0.889-0.825-1.45-1.705-1.688-2.641
		c-0.236-0.937-0.168-1.957,0.205-3.065l-7.939-2.122l-0.125-0.116l2.674-2.882L200.773,195.527z M204.934,195.407l-2.011,2.163
		c-0.627,0.676-0.938,1.355-0.938,2.045c0,0.688,0.301,1.312,0.904,1.871c0.612,0.568,1.26,0.844,1.936,0.82
		c0.676-0.021,1.348-0.395,2.018-1.115l2.002-2.155L204.934,195.407z"/>
	<path fill="#FFFFFF" d="M189.128,216.893l4.252-3.399l-9.243-11.566l2.858-2.286l9.246,11.565l4.194-3.353l1.854,2.315
		l-11.312,9.039L189.128,216.893z"/>
	<path fill="#FFFFFF" d="M177.998,217.713l0.771,8.787l-3.476,1.988l-0.567-12.729l-3.203-5.593l3.229-1.851l3.203,5.593
		l10.692,6.929l-3.483,1.997L177.998,217.713z"/>
	<path fill="#FFFFFF" d="M121.311,226.675c-0.005,0.691,0.236,1.226,0.724,1.599c0.484,0.373,1.361,0.77,2.627,1.188
		c1.268,0.419,2.27,0.83,3.01,1.234c2.01,1.103,3.01,2.576,3,4.424c-0.008,0.961-0.283,1.814-0.828,2.564s-1.326,1.332-2.342,1.75
		c-1.018,0.418-2.156,0.621-3.417,0.612c-1.269-0.007-2.399-0.244-3.39-0.71c-0.991-0.466-1.757-1.119-2.302-1.961
		c-0.544-0.842-0.812-1.795-0.806-2.861l3.661,0.022c-0.004,0.813,0.248,1.448,0.759,1.901c0.51,0.455,1.228,0.687,2.156,0.691
		c0.894,0.005,1.591-0.18,2.091-0.555c0.498-0.376,0.75-0.873,0.752-1.49c0.004-0.578-0.283-1.064-0.863-1.459
		s-1.434-0.766-2.562-1.113c-2.08-0.641-3.593-1.427-4.539-2.359c-0.946-0.934-1.416-2.092-1.407-3.477
		c0.01-1.537,0.599-2.74,1.769-3.609c1.169-0.866,2.737-1.295,4.707-1.281c1.369,0.009,2.612,0.267,3.73,0.773
		c1.121,0.506,1.974,1.197,2.558,2.071c0.586,0.875,0.875,1.886,0.867,3.033l-3.675-0.022c0.013-1.961-1.153-2.949-3.498-2.964
		c-0.87-0.005-1.552,0.167-2.041,0.519C121.562,225.548,121.314,226.04,121.311,226.675z"/>
	<path fill="#FFFFFF" d="M104.063,227.771l6.952,1.049l0.71-4.709l-8.16-1.229l0.438-2.909l11.781,1.774l-2.646,17.576
		l-11.757-1.771l0.441-2.934l8.136,1.226l0.63-4.188l-6.952-1.047L104.063,227.771z"/>
	<path fill="#FFFFFF" d="M87.421,221.172c0.698-1.785,1.817-3.016,3.358-3.688c1.541-0.674,3.308-0.702,5.298-0.086
		c2.177,0.674,3.663,1.936,4.456,3.787c0.794,1.852,0.797,4.057,0.005,6.613l-0.321,1.038c-0.505,1.634-1.238,2.981-2.199,4.048
		c-0.959,1.065-2.076,1.766-3.352,2.1c-1.274,0.334-2.619,0.283-4.034-0.155c-1.959-0.606-3.375-1.619-4.247-3.039
		c-0.873-1.42-1.109-3.108-0.709-5.062l3.499,1.082c-0.254,1.123-0.194,2.012,0.177,2.668c0.373,0.655,1.095,1.149,2.168,1.481
		c1.166,0.36,2.168,0.213,3.006-0.442c0.838-0.658,1.536-1.861,2.096-3.613l0.396-1.283c0.568-1.834,0.705-3.262,0.412-4.281
		c-0.294-1.02-1.04-1.715-2.237-2.084c-1.08-0.336-1.964-0.338-2.648-0.009c-0.686,0.329-1.228,0.998-1.625,2.009L87.421,221.172z"
		/>
	<path fill="#FFFFFF" d="M70.711,215.835c0.788-1.562,1.756-2.791,2.902-3.688c1.146-0.898,2.394-1.408,3.745-1.529
		c1.351-0.119,2.69,0.154,4.021,0.826c1.314,0.664,2.328,1.572,3.041,2.725s1.056,2.459,1.031,3.918
		c-0.025,1.46-0.42,2.954-1.183,4.482l-0.396,0.785c-0.788,1.563-1.764,2.795-2.926,3.699c-1.162,0.903-2.418,1.413-3.767,1.53
		c-1.35,0.116-2.685-0.158-4.008-0.826c-1.322-0.668-2.337-1.577-3.044-2.731s-1.042-2.469-1.006-3.94
		c0.037-1.472,0.447-2.985,1.231-4.54L70.711,215.835z M73.661,218.229c-0.84,1.662-1.18,3.078-1.021,4.242
		c0.159,1.166,0.792,2.026,1.896,2.584c1.098,0.555,2.159,0.555,3.186,0c1.026-0.553,1.96-1.65,2.8-3.298l0.39-0.772
		c0.818-1.62,1.154-3.027,1.01-4.223s-0.776-2.072-1.896-2.638c-1.097-0.556-2.157-0.549-3.18,0.015
		c-1.023,0.564-1.954,1.67-2.794,3.315L73.661,218.229z"/>
	<path fill="#FFFFFF" d="M61.281,198.564l2.937,2.188l-1.269,13.638l6.985-9.377l2.938,2.188l-10.618,14.254l-2.937-2.188
		l1.273-13.666l-7,9.397l-2.928-2.181L61.281,198.564z"/>
	<path fill="#FFFFFF" d="M59.425,196.85l-12.837,12.293l-3.783-3.949c-1.08-1.129-1.792-2.383-2.138-3.76
		c-0.344-1.377-0.286-2.765,0.173-4.162c0.459-1.396,1.285-2.668,2.479-3.811l0.59-0.564c1.193-1.144,2.489-1.914,3.888-2.313
		s2.781-0.396,4.148,0.008c1.367,0.404,2.591,1.164,3.672,2.281L59.425,196.85z M46.197,204.443l8.569-8.205l-1.225-1.278
		c-0.99-1.035-2.086-1.502-3.284-1.399c-1.2,0.101-2.434,0.746-3.703,1.938l-0.679,0.649c-1.306,1.25-2.035,2.468-2.19,3.652
		c-0.154,1.186,0.266,2.299,1.263,3.338L46.197,204.443z"/>
	<path fill="#FFFFFF" d="M39.712,180.536c-0.567,0.396-0.864,0.899-0.889,1.512c-0.024,0.613,0.158,1.558,0.546,2.833
		c0.39,1.276,0.632,2.333,0.728,3.169c0.26,2.279-0.368,3.946-1.884,5.002c-0.788,0.55-1.646,0.818-2.572,0.806
		c-0.926-0.014-1.854-0.314-2.78-0.904c-0.926-0.59-1.751-1.401-2.472-2.438c-0.727-1.041-1.185-2.101-1.374-3.179
		c-0.191-1.077-0.1-2.08,0.274-3.011c0.373-0.93,0.998-1.7,1.872-2.311l2.094,3.006c-0.668,0.465-1.04,1.037-1.117,1.715
		c-0.077,0.68,0.149,1.399,0.68,2.16c0.512,0.734,1.064,1.197,1.659,1.39c0.595,0.188,1.146,0.108,1.652-0.245
		c0.474-0.33,0.705-0.846,0.693-1.547c-0.013-0.7-0.202-1.612-0.569-2.735c-0.676-2.067-0.907-3.758-0.69-5.069
		c0.217-1.311,0.893-2.361,2.027-3.152c1.263-0.88,2.585-1.094,3.968-0.639c1.383,0.455,2.638,1.49,3.765,3.104
		c0.781,1.123,1.288,2.287,1.52,3.494c0.231,1.208,0.159,2.303-0.219,3.285c-0.376,0.979-1.035,1.801-1.978,2.457l-2.101-3.017
		c1.609-1.121,1.744-2.643,0.403-4.565c-0.498-0.714-1.032-1.171-1.602-1.368C40.776,180.091,40.232,180.173,39.712,180.536z"/>
	<path fill="#FFFFFF" d="M30.304,138.003l0.294,2.606l-19.911-4.338l-0.294-2.608L30.304,138.003z"/>
</g>
</svg>
