<?xml version="1.0" encoding="utf-8"?>
<!DOCTYPE svg PUBLIC "-//W3C//DTD SVG 1.1//EN" "http://www.w3.org/Graphics/SVG/1.1/DTD/svg11.dtd">
<svg version="1.1" xmlns="http://www.w3.org/2000/svg" xmlns:xlink="http://www.w3.org/1999/xlink">
<g>
	<path fill="#FFFFFF" d="M25.489,93.14c1.826,0.584,3.124,1.622,3.894,3.118c0.769,1.497,0.909,3.258,0.42,5.282
		c-0.534,2.214-1.701,3.776-3.498,4.687c-1.798,0.91-3.998,1.051-6.601,0.423l-1.057-0.256c-1.661-0.401-3.054-1.046-4.178-1.938
		c-1.125-0.891-1.894-1.962-2.308-3.214c-0.414-1.25-0.447-2.596-0.099-4.035c0.48-1.993,1.402-3.472,2.764-4.432
		c1.363-0.96,3.032-1.303,5.008-1.026l-0.859,3.56c-1.137-0.182-2.021-0.066-2.651,0.346c-0.631,0.413-1.078,1.166-1.343,2.257
		c-0.286,1.187-0.075,2.178,0.633,2.973c0.708,0.794,1.954,1.415,3.738,1.862l1.305,0.315c1.867,0.451,3.3,0.497,4.299,0.14
		c0.999-0.357,1.646-1.146,1.939-2.363c0.266-1.1,0.213-1.981-0.159-2.645c-0.371-0.663-1.073-1.161-2.106-1.494L25.489,93.14z"/>
	<path fill="#FFFFFF" d="M30.603,88.361l2.925-7.205l2.726,1.106l-4.301,10.6l-16.469-6.686l1.377-3.393L30.603,88.361z"/>
	<path fill="#FFFFFF" d="M38.984,77.404l-1.72,3.233l-15.693-8.342l1.718-3.233L38.984,77.404z"/>
	<path fill="#FFFFFF" d="M43.338,59.917c1.494,1.202,2.33,2.639,2.509,4.312c0.179,1.671-0.324,3.364-1.51,5.078
		c-1.296,1.874-2.946,2.911-4.951,3.112c-2.005,0.202-4.108-0.46-6.311-1.982l-0.893-0.618c-1.405-0.973-2.473-2.076-3.2-3.313
		c-0.729-1.236-1.061-2.512-0.996-3.828c0.064-1.315,0.518-2.583,1.36-3.801c1.167-1.688,2.559-2.732,4.176-3.139
		c1.616-0.406,3.296-0.124,5.041,0.846l-2.084,3.012c-0.995-0.58-1.86-0.79-2.598-0.632c-0.738,0.157-1.426,0.698-2.065,1.621
		c-0.694,1.004-0.854,2.004-0.479,3c0.374,0.997,1.313,2.025,2.816,3.084l1.104,0.765c1.579,1.093,2.898,1.651,3.96,1.678
		c1.061,0.026,1.947-0.476,2.66-1.507c0.644-0.93,0.911-1.771,0.804-2.524c-0.108-0.752-0.584-1.47-1.428-2.152L43.338,59.917z"/>
	<path fill="#FFFFFF" d="M48.07,53.033l0.166,2.793l3.67,3.511l-2.532,2.646L36.531,49.695l2.531-2.646l5.821,5.569l-0.481-2.691
		l-1.095-7.313l3.114-3.256l1.344,10.02l11.625,2.136l-3.013,3.148L48.07,53.033z"/>
	<path fill="#FFFFFF" d="M95.723,27.732l-6.106,1.984l-0.029,3.859l-3.704,1.203l0.801-18.947l3.228-1.049L101.73,29.63
		l-3.702,1.203L95.723,27.732z M89.64,26.589l4.226-1.373l-4.181-5.637L89.64,26.589z"/>
	<path fill="#FFFFFF" d="M111.142,23.542c-0.106-0.683-0.43-1.169-0.97-1.461c-0.539-0.289-1.468-0.54-2.786-0.75
		c-1.317-0.211-2.373-0.456-3.165-0.735c-2.163-0.766-3.387-2.062-3.671-3.888c-0.149-0.948-0.014-1.836,0.405-2.664
		c0.418-0.827,1.096-1.527,2.031-2.102c0.937-0.574,2.026-0.96,3.272-1.152c1.255-0.197,2.408-0.144,3.461,0.156
		c1.051,0.301,1.913,0.824,2.585,1.566c0.672,0.744,1.09,1.643,1.255,2.696l-3.618,0.564c-0.126-0.804-0.478-1.389-1.053-1.757
		c-0.576-0.367-1.323-0.479-2.239-0.336c-0.885,0.138-1.543,0.433-1.976,0.883c-0.431,0.45-0.601,0.981-0.505,1.592
		c0.089,0.572,0.451,1.005,1.087,1.301c0.636,0.297,1.537,0.526,2.708,0.69c2.154,0.297,3.774,0.83,4.858,1.601
		c1.084,0.77,1.732,1.838,1.945,3.204c0.237,1.521-0.151,2.802-1.165,3.845c-1.017,1.045-2.496,1.719-4.442,2.022
		c-1.351,0.212-2.619,0.156-3.806-0.165c-1.188-0.321-2.14-0.866-2.855-1.637c-0.719-0.769-1.165-1.721-1.343-2.854l3.632-0.566
		c0.301,1.938,1.611,2.726,3.927,2.364c0.859-0.134,1.504-0.414,1.932-0.839C111.076,24.697,111.24,24.17,111.142,23.542z"/>
	<path fill="#FFFFFF" d="M159.951,15.382l-0.266,13.672l8.789-10.466l4.502,1.693l-6.259,16.635l-3.438-1.294l1.711-4.547
		l3.296-7.721l-9.153,10.709l-2.354-0.886l0.181-14.07l-2.606,7.968l-1.709,4.547l-3.429-1.29l6.259-16.635L159.951,15.382z"/>
	<path fill="#FFFFFF" d="M179.46,40.471L174,37.095l-2.965,2.473l-3.313-2.046l14.973-11.641l2.887,1.783l-3.686,18.617
		l-3.313-2.048L179.46,40.471z M176.4,35.092l3.779,2.336l1.598-6.834L176.4,35.092z"/>
	<path fill="#FFFFFF" d="M193.458,56.499l-2.744-2.423l2.39-13.486l-7.736,8.77l-2.746-2.422L194.38,33.61l2.745,2.422
		l-2.396,13.512l7.752-8.788l2.737,2.415L193.458,56.499z"/>
	<path fill="#FFFFFF" d="M206.359,56.662l8.535-2.234l2.545,3.09l-12.455,2.696l-4.978,4.098l-2.364-2.875l4.977-4.097l5.035-11.705
		l2.555,3.101L206.359,56.662z"/>
	<path fill="#FFFFFF" d="M234.167,104.616l-1.303-5.286l-14.378,3.547l-0.877-3.556l14.377-3.546L230.7,90.56l2.88-0.712
		l3.468,14.057L234.167,104.616z"/>
	<path fill="#FFFFFF" d="M220.307,113.659l-0.474-3.632l17.623-2.3l0.476,3.631L220.307,113.659z"/>
	<path fill="#FFFFFF" d="M238.719,121.444l-12.947,4.408l12.834,4.699l-0.06,4.809l-17.772-0.219l0.047-3.676l4.856,0.061
		l8.382,0.471l-13.186-4.961l0.031-2.515l13.289-4.62l-8.377,0.263l-4.856-0.061l0.046-3.662l17.771,0.221L238.719,121.444z"/>
	<path fill="#FFFFFF" d="M225.725,149.525l1.33-6.904l-4.677-0.9l-1.562,8.104l-2.889-0.557l2.254-11.699l17.452,3.361
		l-2.249,11.676l-2.912-0.562l1.557-8.079l-4.159-0.801l-1.33,6.904L225.725,149.525z"/>
	<path fill="#FFFFFF" d="M218.857,160.997c0.65,0.229,1.232,0.174,1.744-0.165s1.17-1.039,1.979-2.102
		c0.807-1.063,1.52-1.877,2.141-2.445c1.697-1.544,3.416-2.012,5.16-1.4c0.906,0.316,1.625,0.855,2.157,1.614
		c0.53,0.76,0.831,1.688,0.896,2.783c0.063,1.097-0.113,2.239-0.529,3.431c-0.42,1.198-1.01,2.189-1.771,2.975
		c-0.761,0.787-1.629,1.299-2.602,1.541c-0.974,0.242-1.962,0.187-2.97-0.166l1.211-3.457c0.768,0.27,1.449,0.236,2.045-0.099
		c0.598-0.335,1.048-0.94,1.354-1.815c0.295-0.844,0.347-1.563,0.152-2.157c-0.191-0.595-0.58-0.992-1.165-1.196
		c-0.544-0.191-1.1-0.076-1.659,0.344s-1.188,1.107-1.885,2.063c-1.279,1.76-2.517,2.937-3.705,3.526
		c-1.19,0.592-2.438,0.66-3.744,0.203c-1.451-0.508-2.397-1.455-2.84-2.844c-0.44-1.387-0.337-3.01,0.313-4.869
		c0.453-1.289,1.102-2.383,1.942-3.277c0.845-0.896,1.772-1.478,2.791-1.745c1.017-0.271,2.065-0.216,3.149,0.165l-1.215,3.468
		c-1.85-0.647-3.164,0.135-3.938,2.347c-0.287,0.821-0.346,1.521-0.172,2.1C217.871,160.395,218.257,160.788,218.857,160.997z"/>
	<path fill="#FFFFFF" d="M189.746,200.717l4.719-4.354l-1.586-3.521l2.861-2.641l7.189,17.55l-2.494,2.301l-16.941-8.551
		l2.861-2.641L189.746,200.717z M195.75,199.213l-3.266,3.014l6.151,3.375L195.75,199.213z"/>
	<path fill="#FFFFFF" d="M177.475,210.986c0.385,0.576,0.881,0.883,1.492,0.921s1.561-0.123,2.846-0.483
		c1.285-0.359,2.347-0.578,3.184-0.656c2.283-0.209,3.938,0.457,4.96,1.996c0.532,0.799,0.78,1.661,0.746,2.588
		c-0.034,0.928-0.354,1.848-0.966,2.76c-0.609,0.914-1.439,1.72-2.489,2.416c-1.058,0.703-2.128,1.139-3.21,1.306
		c-1.08,0.166-2.082,0.052-3.004-0.342c-0.922-0.396-1.676-1.035-2.268-1.925l3.051-2.025c0.449,0.678,1.014,1.063,1.69,1.156
		c0.679,0.092,1.402-0.118,2.177-0.633c0.744-0.496,1.219-1.039,1.422-1.627c0.205-0.592,0.137-1.144-0.207-1.658
		c-0.319-0.481-0.83-0.723-1.529-0.728c-0.701-0.003-1.617,0.166-2.75,0.507c-2.08,0.631-3.775,0.824-5.08,0.578
		c-1.309-0.246-2.344-0.943-3.109-2.097c-0.852-1.281-1.035-2.608-0.55-3.979c0.485-1.375,1.548-2.604,3.188-3.694
		c1.139-0.757,2.313-1.237,3.525-1.442c1.213-0.203,2.307-0.107,3.278,0.291c0.976,0.398,1.778,1.076,2.413,2.032l-3.061,2.032
		c-1.086-1.633-2.604-1.801-4.558-0.504c-0.726,0.481-1.192,1.006-1.403,1.57C177.055,209.91,177.125,210.457,177.475,210.986z"/>
	<path fill="#FFFFFF" d="M136.865,227.008l-0.615-6.232l3.645-0.358l1.746,17.688l-6.899,0.681
		c-1.329,0.132-2.521,0.004-3.577-0.384c-1.057-0.387-1.898-1-2.53-1.842c-0.631-0.842-1.002-1.832-1.114-2.975
		c-0.172-1.732,0.287-3.159,1.375-4.275c1.088-1.117,2.682-1.779,4.776-1.986L136.865,227.008z M137.156,229.96l-3.256,0.319
		c-0.965,0.097-1.676,0.396-2.137,0.898c-0.461,0.504-0.652,1.176-0.568,2.02c0.086,0.865,0.41,1.541,0.973,2.025
		c0.563,0.483,1.295,0.689,2.195,0.617l3.34-0.33L137.156,229.96z"/>
	<path fill="#FFFFFF" d="M109.396,229.307c0.112-1.746,0.521-3.258,1.223-4.533c0.701-1.275,1.651-2.233,2.846-2.875
		c1.195-0.641,2.536-0.912,4.021-0.815c1.471,0.095,2.759,0.533,3.867,1.313c1.107,0.781,1.936,1.848,2.484,3.199
		c0.548,1.353,0.772,2.883,0.67,4.588l-0.057,0.877c-0.112,1.746-0.526,3.264-1.241,4.551c-0.716,1.287-1.671,2.248-2.866,2.886
		c-1.195,0.637-2.531,0.905-4.01,0.812c-1.478-0.096-2.769-0.535-3.871-1.32c-1.104-0.785-1.927-1.861-2.471-3.229
		c-0.544-1.368-0.759-2.922-0.647-4.659L109.396,229.307z M113.047,230.35c-0.12,1.858,0.121,3.293,0.725,4.303
		c0.604,1.011,1.522,1.555,2.758,1.635c1.226,0.079,2.202-0.337,2.93-1.248s1.155-2.288,1.283-4.132l0.055-0.864
		c0.117-1.811-0.125-3.236-0.727-4.279c-0.601-1.041-1.527-1.604-2.778-1.684c-1.226-0.08-2.199,0.341-2.918,1.261
		c-0.721,0.92-1.145,2.302-1.271,4.146L113.047,230.35z"/>
	<path fill="#FFFFFF" d="M97.928,222.904c-0.155,0.674-0.037,1.246,0.356,1.717c0.392,0.47,1.161,1.049,2.306,1.734
		c1.145,0.685,2.033,1.306,2.665,1.86c1.722,1.517,2.375,3.175,1.96,4.974c-0.216,0.937-0.672,1.709-1.368,2.321
		c-0.696,0.612-1.586,1.011-2.668,1.195c-1.083,0.185-2.238,0.136-3.468-0.147c-1.236-0.285-2.287-0.764-3.152-1.436
		c-0.863-0.671-1.469-1.477-1.815-2.416c-0.348-0.939-0.401-1.932-0.162-2.969l3.568,0.822c-0.183,0.793-0.075,1.467,0.323,2.022
		c0.397,0.556,1.049,0.937,1.953,1.146c0.872,0.201,1.593,0.172,2.162-0.084c0.568-0.258,0.922-0.688,1.061-1.291
		c0.13-0.563-0.044-1.1-0.523-1.61s-1.231-1.062-2.258-1.647c-1.889-1.078-3.193-2.178-3.913-3.295
		c-0.719-1.117-0.923-2.352-0.612-3.699c0.346-1.498,1.184-2.543,2.515-3.135c1.33-0.591,2.955-0.664,4.874-0.223
		c1.332,0.307,2.489,0.83,3.472,1.57c0.981,0.74,1.662,1.601,2.041,2.582c0.38,0.979,0.44,2.031,0.183,3.147l-3.58-0.825
		c0.44-1.91-0.481-3.13-2.765-3.656c-0.849-0.195-1.551-0.176-2.106,0.06C98.419,221.857,98.071,222.286,97.928,222.904z"/>
	<path fill="#FFFFFF" d="M83.347,217.848c-0.256,0.643-0.226,1.226,0.091,1.75c0.316,0.524,0.987,1.213,2.016,2.064
		c1.026,0.854,1.811,1.602,2.351,2.245c1.471,1.761,1.863,3.499,1.18,5.214c-0.356,0.893-0.925,1.588-1.706,2.087
		c-0.781,0.499-1.721,0.757-2.819,0.774c-1.098,0.019-2.232-0.207-3.404-0.674c-1.179-0.471-2.145-1.104-2.896-1.897
		s-1.228-1.683-1.428-2.665c-0.199-0.982-0.102-1.969,0.293-2.959l3.401,1.357c-0.301,0.756-0.298,1.438,0.012,2.047
		c0.309,0.609,0.894,1.086,1.756,1.431c0.831,0.331,1.548,0.413,2.149,0.245c0.601-0.167,1.017-0.538,1.245-1.112
		c0.214-0.537,0.123-1.095-0.272-1.673c-0.396-0.579-1.056-1.234-1.98-1.973c-1.702-1.354-2.825-2.639-3.366-3.854
		c-0.54-1.214-0.555-2.463-0.041-3.748c0.569-1.43,1.557-2.335,2.962-2.716c1.404-0.382,3.021-0.208,4.851,0.521
		c1.271,0.506,2.334,1.201,3.191,2.082c0.858,0.881,1.399,1.834,1.625,2.861c0.227,1.027,0.126,2.074-0.299,3.141l-3.413-1.361
		c0.727-1.821,0.001-3.166-2.176-4.034c-0.809-0.321-1.506-0.41-2.09-0.263C83.993,216.889,83.583,217.257,83.347,217.848z"/>
	<path fill="#FFFFFF" d="M76.515,209.227l3.229,1.728l-8.389,15.67l-3.229-1.729L76.515,209.227z"/>
	<path fill="#FFFFFF" d="M73.899,207.932l-10.123,14.607l-5.116-3.545c-1.773-1.229-2.882-2.499-3.328-3.813
		s-0.215-2.627,0.693-3.938c0.496-0.716,1.117-1.22,1.862-1.511c0.746-0.289,1.534-0.334,2.366-0.135
		c-0.62-0.705-0.948-1.492-0.986-2.361c-0.037-0.866,0.229-1.711,0.8-2.534c0.974-1.404,2.158-2.158,3.556-2.259
		c1.396-0.103,2.929,0.416,4.597,1.552L73.899,207.932z M65.007,214.333l-2.228-1.543c-1.537-1.026-2.716-0.946-3.536,0.237
		c-0.459,0.662-0.597,1.271-0.414,1.83c0.183,0.558,0.69,1.123,1.519,1.697l2.107,1.461L65.007,214.333z M66.481,212.206
		l2.732-3.942l-2.579-1.787c-0.708-0.492-1.379-0.705-2.012-0.645c-0.632,0.063-1.154,0.391-1.566,0.986
		c-0.927,1.338-0.706,2.496,0.666,3.476L66.481,212.206z"/>
	<path fill="#FFFFFF" d="M56.739,198.604l-5.685-5.307l2.008-2.15l8.361,7.806l-12.128,12.993l-2.677-2.5L56.739,198.604z"/>
	<path fill="#FFFFFF" d="M39.326,186.57l4.444,5.449l3.688-3.011l-5.216-6.394l2.28-1.86l7.53,9.231L38.28,201.223l-7.516-9.214
		l2.299-1.875l5.201,6.375l3.281-2.678l-4.444-5.448L39.326,186.57z"/>
	<path fill="#FFFFFF" d="M31.514,149.041l0.612,2.553l-20.293-1.857l-0.612-2.553L31.514,149.041z"/>
</g>
</svg>
