<?xml version="1.0" encoding="utf-8"?>
<!DOCTYPE svg PUBLIC "-//W3C//DTD SVG 1.1//EN" "http://www.w3.org/Graphics/SVG/1.1/DTD/svg11.dtd">
<svg version="1.1" xmlns="http://www.w3.org/2000/svg" xmlns:xlink="http://www.w3.org/1999/xlink">
<g>
	<path fill="#FFFFFF" d="M25.479,91.561l-1.899,6.77l4.583,1.286l2.23-7.946l2.832,0.795l-3.219,11.471l-17.112-4.802l3.212-11.447
		l2.856,0.801l-2.224,7.922l4.079,1.144l1.899-6.77L25.479,91.561z"/>
	<path fill="#FFFFFF" d="M34.546,80.351l-2.657,5.846l2.828,2.626l-1.611,3.545L19.664,78.99l1.403-3.09l18.934,1.299l-1.611,3.545
		L34.546,80.351z M29.598,84.068l1.838-4.044l-6.98-0.72L29.598,84.068z"/>
	<path fill="#FFFFFF" d="M43.306,61.74c1.513,1.177,2.373,2.601,2.579,4.27c0.206,1.67-0.27,3.37-1.426,5.104
		c-1.266,1.895-2.899,2.959-4.9,3.193c-2.001,0.233-4.115-0.393-6.341-1.88l-0.904-0.603c-1.421-0.949-2.506-2.036-3.254-3.26
		c-0.749-1.224-1.101-2.495-1.058-3.812c0.042-1.317,0.475-2.591,1.298-3.823c1.139-1.706,2.514-2.774,4.123-3.205
		c1.609-0.433,3.294-0.179,5.054,0.762l-2.034,3.045c-1.004-0.563-1.873-0.759-2.607-0.589c-0.735,0.17-1.415,0.721-2.038,1.656
		c-0.678,1.015-0.821,2.018-0.431,3.007c0.391,0.991,1.347,2.003,2.866,3.039l1.117,0.745c1.597,1.066,2.926,1.604,3.986,1.613
		c1.061,0.01,1.939-0.507,2.636-1.55c0.628-0.94,0.882-1.786,0.762-2.537c-0.12-0.75-0.607-1.46-1.462-2.129L43.306,61.74z"/>
	<path fill="#FFFFFF" d="M59.261,53.164l-2.517,2.661l-5.534-5.232l-4.906,5.188l5.535,5.233l-2.517,2.66l-12.915-12.21l2.517-2.661
		l5.233,4.948l4.905-5.189l-5.232-4.948l2.515-2.661L59.261,53.164z"/>
	<path fill="#FFFFFF" d="M80.913,31.625c0.815,1.735,0.938,3.395,0.366,4.976c-0.573,1.582-1.767,2.882-3.584,3.902
		c-1.986,1.117-3.924,1.326-5.814,0.628c-1.89-0.698-3.491-2.213-4.803-4.548l-0.531-0.947c-0.838-1.49-1.313-2.949-1.425-4.38
		c-0.113-1.43,0.147-2.723,0.782-3.877c0.635-1.154,1.598-2.094,2.89-2.821c1.788-1.004,3.497-1.334,5.128-0.99
		c1.63,0.344,3.018,1.333,4.16,2.969l-3.192,1.794c-0.641-0.957-1.326-1.525-2.059-1.707c-0.731-0.182-1.588,0.002-2.566,0.553
		c-1.064,0.598-1.646,1.426-1.746,2.486c-0.101,1.061,0.293,2.396,1.18,4.007l0.657,1.171c0.941,1.674,1.882,2.756,2.824,3.244
		c0.941,0.489,1.959,0.425,3.051-0.188c0.986-0.554,1.597-1.192,1.829-1.916s0.12-1.578-0.34-2.562L80.913,31.625z"/>
	<path fill="#FFFFFF" d="M87.896,32.107l7.265-2.772l1.049,2.749l-10.687,4.077l-6.336-16.605l3.421-1.305L87.896,32.107z"/>
	<path fill="#FFFFFF" d="M101.627,30.769l-3.538,0.946l-4.595-17.168l3.538-0.947L101.627,30.769z"/>
	<path fill="#FFFFFF" d="M117.365,22.048c0.138,1.912-0.345,3.503-1.448,4.773c-1.103,1.271-2.685,2.055-4.746,2.354
		c-2.255,0.327-4.139-0.175-5.652-1.505c-1.513-1.331-2.461-3.32-2.846-5.97l-0.155-1.076c-0.246-1.692-0.164-3.225,0.244-4.599
		c0.41-1.375,1.117-2.487,2.125-3.337c1.008-0.85,2.244-1.38,3.71-1.592c2.03-0.295,3.743,0.011,5.142,0.918
		c1.397,0.908,2.336,2.33,2.814,4.268l-3.624,0.525c-0.254-1.123-0.688-1.9-1.307-2.333s-1.482-0.568-2.594-0.406
		c-1.209,0.175-2.05,0.739-2.523,1.692c-0.475,0.954-0.588,2.34-0.34,4.163l0.192,1.329c0.276,1.901,0.766,3.249,1.469,4.042
		c0.703,0.794,1.675,1.102,2.915,0.921c1.12-0.162,1.918-0.54,2.396-1.131s0.679-1.429,0.604-2.511L117.365,22.048z"/>
	<path fill="#FFFFFF" d="M125.65,20.838l-1.937,2.02l-0.081,5.078l-3.662-0.059l0.285-17.771l3.662,0.059l-0.129,8.055l1.646-2.183
		l4.622-5.774l4.504,0.072l-6.438,7.796l6.336,9.978l-4.357-0.07L125.65,20.838z"/>
	<path fill="#FFFFFF" d="M158.441,15.12l0.07,13.676l8.529-10.68l4.543,1.582l-5.848,16.785l-3.469-1.209l1.598-4.588l3.105-7.799
		l-8.89,10.929l-2.375-0.827l-0.164-14.071l-2.41,8.029l-1.598,4.588l-3.459-1.204l5.848-16.785L158.441,15.12z"/>
	<path fill="#FFFFFF" d="M188.411,29.115l-5.877,10.125c-0.978,1.682-2.275,2.707-3.896,3.075c-1.621,0.368-3.342,0.022-5.164-1.036
		c-1.797-1.042-2.945-2.344-3.449-3.906c-0.506-1.564-0.284-3.182,0.658-4.855l5.943-10.241l3.166,1.837l-5.887,10.146
		c-0.586,1.007-0.771,1.881-0.555,2.622c0.213,0.74,0.748,1.358,1.6,1.853c1.779,1.033,3.229,0.623,4.342-1.234l5.938-10.231
		L188.411,29.115z"/>
	<path fill="#FFFFFF" d="M191.473,48.072c0.438-0.536,0.584-1.102,0.439-1.698c-0.145-0.595-0.58-1.453-1.305-2.574
		c-0.726-1.119-1.248-2.069-1.57-2.845c-0.877-2.121-0.73-3.897,0.438-5.329c0.605-0.745,1.355-1.238,2.25-1.479
		c0.896-0.242,1.869-0.207,2.922,0.104c1.054,0.311,2.07,0.866,3.047,1.663c0.984,0.802,1.718,1.694,2.195,2.679
		c0.48,0.983,0.668,1.974,0.564,2.97c-0.105,0.998-0.492,1.909-1.166,2.735l-2.84-2.313c0.516-0.63,0.715-1.283,0.604-1.958
		c-0.113-0.674-0.527-1.303-1.248-1.889c-0.693-0.565-1.352-0.859-1.977-0.878c-0.623-0.021-1.131,0.209-1.521,0.688
		c-0.365,0.448-0.445,1.007-0.24,1.678c0.203,0.67,0.638,1.496,1.297,2.475c1.222,1.801,1.906,3.363,2.06,4.684
		c0.153,1.321-0.209,2.518-1.082,3.59c-0.973,1.192-2.187,1.76-3.641,1.704c-1.453-0.057-2.945-0.708-4.474-1.952
		c-1.059-0.863-1.865-1.844-2.42-2.941s-0.787-2.169-0.693-3.218c0.093-1.047,0.5-2.016,1.226-2.906l2.851,2.321
		c-1.238,1.521-0.949,3.021,0.867,4.501c0.674,0.551,1.313,0.842,1.916,0.877C190.57,48.794,191.073,48.564,191.473,48.072z"/>
	<path fill="#FFFFFF" d="M212.661,55.337l-3.649-4.039l-10.984,9.928l-2.457-2.717l10.986-9.929l-3.603-3.984l2.2-1.989
		l9.707,10.741L212.661,55.337z"/>
	<path fill="#FFFFFF" d="M209.342,76.822l15.977-7.789l2.728,5.596c0.945,1.939,1.291,3.591,1.037,4.954
		c-0.254,1.364-1.099,2.396-2.531,3.095c-0.782,0.381-1.569,0.516-2.362,0.404c-0.791-0.111-1.502-0.458-2.129-1.039
		c0.194,0.919,0.096,1.767-0.297,2.542c-0.392,0.775-1.037,1.381-1.937,1.819c-1.537,0.749-2.938,0.826-4.207,0.231
		c-1.269-0.595-2.353-1.797-3.25-3.604L209.342,76.822z M217.902,76.722l-4.311,2.103l1.373,2.82
		c0.379,0.775,0.857,1.29,1.439,1.546c0.582,0.255,1.197,0.224,1.85-0.093c1.463-0.713,1.836-1.833,1.119-3.357L217.902,76.722z
		 M220.229,75.587l1.188,2.436c0.838,1.647,1.906,2.155,3.201,1.523c0.723-0.353,1.144-0.817,1.256-1.394
		c0.112-0.576-0.051-1.317-0.494-2.223l-1.123-2.305L220.229,75.587z"/>
	<path fill="#FFFFFF" d="M226.393,98.606l-2.115-6.707l-4.541,1.432l2.48,7.87l-2.805,0.885l-3.582-11.363l16.951-5.344
		l3.574,11.339l-2.828,0.892l-2.476-7.847l-4.038,1.274l2.112,6.706L226.393,98.606z"/>
	<path fill="#FFFFFF" d="M226.639,125.643c0.691-0.019,1.217-0.273,1.576-0.771s0.729-1.384,1.109-2.664
		c0.38-1.28,0.762-2.293,1.143-3.043c1.043-2.043,2.488-3.087,4.334-3.129c0.961-0.023,1.822,0.227,2.588,0.75
		s1.371,1.286,1.818,2.289c0.447,1.003,0.686,2.135,0.715,3.396c0.031,1.269-0.172,2.406-0.609,3.409
		c-0.436,1.004-1.065,1.79-1.893,2.359c-0.824,0.568-1.77,0.865-2.836,0.891l-0.086-3.661c0.814-0.02,1.441-0.289,1.881-0.813
		c0.438-0.523,0.646-1.248,0.625-2.176c-0.02-0.896-0.225-1.586-0.617-2.074c-0.389-0.488-0.893-0.724-1.512-0.709
		c-0.578,0.014-1.055,0.316-1.432,0.907s-0.723,1.456-1.037,2.595c-0.578,2.097-1.318,3.633-2.225,4.606
		c-0.904,0.973-2.05,1.477-3.433,1.51c-1.537,0.035-2.758-0.518-3.66-1.66c-0.899-1.144-1.375-2.697-1.422-4.667
		c-0.031-1.367,0.188-2.617,0.662-3.752c0.476-1.134,1.139-2.007,1.996-2.617c0.854-0.611,1.858-0.929,3.006-0.956l0.086,3.673
		c-1.961,0.046-2.914,1.241-2.856,3.583c0.02,0.871,0.213,1.546,0.578,2.026C225.504,125.423,226.004,125.654,226.639,125.643z"/>
	<path fill="#FFFFFF" d="M224.34,135.314l-0.926,7.722l-2.92-0.351l1.361-11.356l17.646,2.114l-0.437,3.637L224.34,135.314z"/>
	<path fill="#FFFFFF" d="M224.829,159.723c-1.688-0.453-3.093-1.148-4.205-2.087c-1.113-0.938-1.867-2.057-2.263-3.354
		c-0.393-1.298-0.397-2.666-0.012-4.104c0.381-1.423,1.063-2.602,2.045-3.533c0.982-0.934,2.191-1.537,3.625-1.811
		c1.435-0.271,2.978-0.191,4.631,0.242l0.849,0.227c1.69,0.454,3.099,1.156,4.219,2.11c1.123,0.953,1.878,2.078,2.269,3.374
		c0.391,1.298,0.395,2.661,0.012,4.092c-0.385,1.43-1.068,2.609-2.055,3.538s-2.203,1.524-3.652,1.79
		c-1.447,0.266-3.014,0.172-4.693-0.279L224.829,159.723z M226.566,156.346c1.8,0.481,3.254,0.526,4.363,0.133
		c1.107-0.395,1.82-1.188,2.141-2.384c0.318-1.188,0.103-2.227-0.647-3.118c-0.752-0.894-2.019-1.58-3.801-2.066l-0.836-0.225
		c-1.754-0.47-3.201-0.512-4.341-0.125c-1.141,0.385-1.87,1.184-2.194,2.395c-0.317,1.188-0.099,2.223,0.664,3.109
		c0.763,0.886,2.033,1.571,3.813,2.059L226.566,156.346z"/>
	<path fill="#FFFFFF" d="M214.648,174.051l10.306,7.713l-1.604,3.276l-14.229-11.358l1.623-3.312l11.948,2.632l-9.403-7.827
		l1.621-3.312l17.696,4.275l-1.606,3.278l-12.394-3.394l10.047,8.185l-1.362,2.784L214.648,174.051z"/>
	<path fill="#FFFFFF" d="M206.221,191.236l4.164-5.663l-3.836-2.82l-4.887,6.649l-2.371-1.743l7.057-9.601l14.32,10.527l-7.041,9.58
		l-2.391-1.757l4.873-6.63l-3.414-2.51l-4.164,5.666L206.221,191.236z"/>
	<path fill="#FFFFFF" d="M198.25,198.089l2.057-2.069l-4.615-4.586l2.582-2.599l12.605,12.53l-4.654,4.685
		c-1.479,1.488-2.955,2.308-4.422,2.455s-2.807-0.38-4.018-1.584c-0.861-0.854-1.393-1.754-1.598-2.696
		c-0.203-0.943-0.103-1.963,0.311-3.058l-7.861-2.394l-0.121-0.121l2.771-2.787L198.25,198.089z M202.411,198.109l-2.082,2.097
		c-0.647,0.651-0.983,1.321-1.009,2.01c-0.023,0.688,0.257,1.321,0.839,1.9c0.596,0.592,1.229,0.887,1.905,0.888
		c0.679,0.001,1.361-0.348,2.056-1.046l2.073-2.086L202.411,198.109z"/>
	<path fill="#FFFFFF" d="M173.688,225.912l4.736-2.686l-7.299-12.881l3.186-1.807l7.301,12.882l4.673-2.647l1.463,2.58l-12.597,7.14
		L173.688,225.912z"/>
	<path fill="#FFFFFF" d="M151.504,218.629l3.438-1.263l2.627,7.147l6.703-2.463l-2.627-7.15l3.437-1.262l6.133,16.682l-3.438,1.263
		l-2.483-6.759l-6.703,2.464l2.486,6.76l-3.438,1.265L151.504,218.629z"/>
	<path fill="#FFFFFF" d="M139.654,224.702l6.318-1.144l0.549-3.822l3.832-0.693l-3.344,18.669l-3.338,0.604l-9.715-16.305
		l3.832-0.693L139.654,224.702z M145.529,226.652l-4.372,0.793l3.385,6.146L145.529,226.652z"/>
	<path fill="#FFFFFF" d="M118.519,222.122l3.662-0.029l7.217,11.64l-0.09-11.693l3.662-0.028l0.137,17.773l-3.662,0.028
		l-7.229-11.664l0.09,11.719l-3.649,0.027L118.519,222.122z"/>
	<path fill="#FFFFFF" d="M87.676,230.752l5.242,1.466l3.989-14.26l3.526,0.987l-3.988,14.26l5.172,1.447l-0.799,2.855l-13.942-3.9
		L87.676,230.752z"/>
	<path fill="#FFFFFF" d="M77.222,209.883l3.318,1.549l-3.222,6.902l6.47,3.021l3.223-6.902l3.317,1.549l-7.517,16.105l-3.318-1.549
		l3.046-6.526l-6.471-3.021l-3.047,6.525l-3.318-1.549L77.222,209.883z"/>
	<path fill="#FFFFFF" d="M61.889,208.889l5.825,3.938l2.666-3.944l-6.836-4.62l1.647-2.438l9.87,6.674l-9.956,14.724l-9.85-6.66
		l1.662-2.457l6.815,4.607l2.372-3.508l-5.824-3.938L61.889,208.889z"/>
	<path fill="#FFFFFF" d="M49.754,191.009l-5.039-5.922l2.241-1.907l7.412,8.711l-13.537,11.52l-2.372-2.79L49.754,191.009z"/>
	<path fill="#FFFFFF" d="M37.521,175.208l3.377,5.461l3.756-0.887l2.048,3.313l-18.597,3.717l-1.784-2.888l11.62-15.004l2.047,3.313
		L37.521,175.208z M37.854,181.389l-2.337-3.779l-4.484,5.397L37.854,181.389z"/>
	<path fill="#FFFFFF" d="M29.775,161.217c-0.638,0.268-1.034,0.696-1.188,1.289c-0.154,0.594-0.177,1.557-0.067,2.887
		c0.109,1.328,0.123,2.412,0.041,3.25c-0.229,2.281-1.196,3.778-2.902,4.489c-0.886,0.369-1.78,0.45-2.684,0.24
		c-0.903-0.209-1.745-0.701-2.526-1.474c-0.779-0.771-1.413-1.739-1.898-2.903c-0.489-1.172-0.713-2.304-0.67-3.397
		c0.041-1.093,0.344-2.055,0.905-2.884c0.563-0.83,1.336-1.45,2.319-1.86l1.41,3.379c-0.751,0.313-1.236,0.795-1.456,1.44
		c-0.219,0.647-0.15,1.399,0.207,2.255c0.345,0.827,0.787,1.396,1.328,1.708c0.54,0.313,1.096,0.351,1.666,0.111
		c0.533-0.224,0.868-0.677,1.005-1.364c0.137-0.688,0.145-1.619,0.024-2.795c-0.224-2.163-0.092-3.863,0.398-5.099
		c0.489-1.236,1.373-2.121,2.649-2.654c1.42-0.592,2.758-0.521,4.013,0.218c1.256,0.737,2.263,2.016,3.021,3.832
		c0.527,1.262,0.775,2.508,0.746,3.737c-0.029,1.229-0.333,2.282-0.909,3.163c-0.577,0.88-1.394,1.54-2.453,1.98l-1.415-3.391
		c1.811-0.756,2.264-2.215,1.361-4.377c-0.335-0.805-0.76-1.363-1.274-1.678C30.911,161.007,30.361,160.973,29.775,161.217z"/>
	<path fill="#FFFFFF" d="M14.538,144.816l1.308,5.285l14.373-3.559l0.88,3.555l-14.373,3.559l1.29,5.214l-2.879,0.713l-3.479-14.054
		L14.538,144.816z"/>
	<path fill="#FFFFFF" d="M29.336,126.441l-0.024,2.625l-19.237-6.724l0.024-2.624L29.336,126.441z"/>
</g>
</svg>
